Newsreader72pt-SemiBold.ufo
<glyph name="parenleft" format="2">
  <advance width="563.9920000000001"/>
  <unicode hex="0028"/>
  <outline>
    <contour>
      <point x="263.104" y="625.328" type="curve" smooth="yes"/>
      <point x="263.104" y="922.352"/>
      <point x="318.592" y="1134.9360000000001"/>
      <point x="516.624" y="1470.544" type="curve"/>
      <point x="487.23199999999997" y="1488.24" type="line"/>
      <point x="147.072" y="1062.648"/>
      <point x="70.4" y="894.3679999999999"/>
      <point x="70.4" y="625.328" type="curve" smooth="yes"/>
      <point x="70.4" y="356.288"/>
      <point x="147.072" y="187.432"/>
      <point x="487.23199999999997" y="-238.16000000000003" type="curve"/>
      <point x="516.624" y="-220.464" type="line"/>
      <point x="318.592" y="115.144"/>
      <point x="263.104" y="328.728"/>
    </contour>
  </outline>
</glyph>
<glyph name="plus" format="2">
  <advance width="1150.0"/>
  <unicode hex="002B"/>
  <outline>
    <contour>
      <point x="535.64" y="923.0" type="line"/>
      <point x="535.64" y="101.0" type="line"/>
      <point x="614.36" y="101.0" type="line"/>
      <point x="614.36" y="923.0" type="line"/>
    </contour>
    <contour>
      <point x="986.0" y="551.36" type="line"/>
      <point x="164.0" y="551.36" type="line"/>
      <point x="164.0" y="472.64" type="line"/>
      <point x="986.0" y="472.64" type="line"/>
    </contour>
  </outline>
</glyph>
<glyph name="period" format="2">
  <advance width="505.008"/>
  <unicode hex="002E"/>
  <outline>
    <contour>
      <point x="252.504" y="317.088" type="curve" smooth="yes"/>
      <point x="151.424" y="317.088"/>
      <point x="79.704" y="243.368"/>
      <point x="79.704" y="147.98399999999998" type="curve" smooth="yes"/>
      <point x="79.704" y="52.6"/>
      <point x="151.424" y="-21.12"/>
      <point x="252.504" y="-21.12" type="curve" smooth="yes"/>
      <point x="353.584" y="-21.12"/>
      <point x="425.304" y="52.6"/>
      <point x="425.304" y="147.98399999999998" type="curve" smooth="yes"/>
      <point x="425.304" y="243.368"/>
      <point x="353.584" y="317.088"/>
    </contour>
  </outline>
</glyph>
<glyph name="slash" format="2">
  <advance width="781.608"/>
  <unicode hex="002F"/>
  <outline>
    <contour>
      <point x="51.488" y="0.0" type="line"/>
      <point x="136.11999999999998" y="0.0" type="line"/>
      <point x="733.12" y="1430.0" type="line"/>
      <point x="648.4879999999999" y="1430.0" type="line"/>
    </contour>
  </outline>
</glyph>
<glyph name="zero" format="2">
  <advance width="1284.8"/>
  <unicode hex="0030"/>
  <outline>
    <contour>
      <point x="645.128" y="37.44799999999999" type="curve" smooth="yes"/>
      <point x="486.43305494505495" y="37.44799999999999"/>
      <point x="393.20799999999997" y="262.896"/>
      <point x="393.20799999999997" y="755.4799999999999" type="curve" smooth="yes"/>
      <point x="393.20799999999997" y="1188.4080000000001"/>
      <point x="485.0396404494382" y="1392.552"/>
      <point x="640.096" y="1392.552" type="curve" smooth="yes"/>
      <point x="798.790945054945" y="1392.552"/>
      <point x="892.016" y="1167.104"/>
      <point x="892.016" y="674.5200000000001" type="curve" smooth="yes"/>
      <point x="892.016" y="241.592"/>
      <point x="800.1843595505618" y="37.44799999999999"/>
    </contour>
    <contour>
      <point x="650.9119999999999" y="1454.24" type="curve" smooth="yes"/>
      <point x="312.61288495575224" y="1454.24"/>
      <point x="73.336" y="1154.392"/>
      <point x="73.336" y="714.272" type="curve" smooth="yes"/>
      <point x="73.336" y="273.728"/>
      <point x="295.3115134168157" y="-24.240000000000002"/>
      <point x="634.312" y="-24.240000000000002" type="curve" smooth="yes"/>
      <point x="972.6111150442479" y="-24.240000000000002"/>
      <point x="1211.888" y="275.608"/>
      <point x="1211.888" y="715.728" type="curve" smooth="yes"/>
      <point x="1211.888" y="1156.272"/>
      <point x="989.9124865831843" y="1454.24"/>
    </contour>
  </outline>
</glyph>
<glyph name="one" format="2">
  <advance width="1284.8"/>
  <unicode hex="0031"/>
  <outline>
    <contour>
      <point x="548.2959999999999" y="82.816" type="line"/>
      <point x="253.37599999999998" y="31.816000000000003" type="line"/>
      <point x="253.37599999999998" y="0.0" type="line"/>
      <point x="1151.112" y="0.0" type="line"/>
      <point x="1151.112" y="31.816000000000003" type="line"/>
      <point x="872.3439999999999" y="82.816" type="line"/>
      <point x="872.3439999999999" y="1441.52" type="line"/>
      <point x="829.048" y="1441.52" type="line"/>
      <point x="170.088" y="1120.8960000000002" type="line"/>
      <point x="182.48" y="1080.992" type="line"/>
      <point x="743.232" y="1209.3600000000001" type="line"/>
      <point x="548.2959999999999" y="1279.848" type="line"/>
    </contour>
  </outline>
</glyph>
<glyph name="greater" format="2">
  <advance width="1150.0"/>
  <unicode hex="003E"/>
  <outline>
    <contour>
      <point x="972.168" y="488.736" type="line"/>
      <point x="972.168" y="538.72" type="line"/>
      <point x="169.0" y="493.70399999999995" type="line"/>
      <point x="169.0" y="408.40799999999996" type="line"/>
      <point x="965.144" y="490.024" type="line"/>
      <point x="965.144" y="536.5200000000001" type="line"/>
      <point x="169.0" y="615.592" type="line"/>
      <point x="169.0" y="530.296" type="line"/>
    </contour>
  </outline>
</glyph>
<glyph name="A" format="2">
  <advance width="1534.9840000000002"/>
  <unicode hex="0041"/>
  <anchor x="738.2800000000001" y="1430.0" name="UCtop"/>
  <anchor x="1372.152" y="0.0" name="right"/>
  <anchor x="711.064" y="0.0" name="bottom"/>
  <outline>
    <contour>
      <point x="331.28" y="506.23999999999995" type="line"/>
      <point x="1036.584" y="506.23999999999995" type="line"/>
      <point x="1036.584" y="578.96" type="line"/>
      <point x="331.28" y="578.96" type="line"/>
    </contour>
    <contour>
      <point x="1420.952" y="80.48" type="line"/>
      <point x="819.216" y="1441.52" type="line"/>
      <point x="664.192" y="1441.52" type="line"/>
      <point x="129.76" y="82.54400000000001" type="line"/>
      <point x="-23.24" y="31.968" type="line"/>
      <point x="-23.24" y="0.0" type="line"/>
      <point x="393.392" y="0.0" type="line"/>
      <point x="393.392" y="31.968" type="line"/>
      <point x="210.176" y="79.54400000000001" type="line"/>
      <point x="637.792" y="1191.824" type="line"/>
      <point x="588.624" y="1171.472" type="line"/>
      <point x="1064.8799999999999" y="78.48" type="line"/>
      <point x="889.664" y="32.816" type="line"/>
      <point x="889.664" y="0.0" type="line"/>
      <point x="1576.952" y="0.0" type="line"/>
      <point x="1576.952" y="32.816" type="line"/>
    </contour>
  </outline>
</glyph>
<glyph name="D" format="2">
  <advance width="1603.816"/>
  <unicode hex="0044"/>
  <anchor x="809.408" y="1430.0" name="UCtop"/>
  <anchor x="809.408" y="0.0" name="bottom"/>
  <outline>
    <contour>
      <point x="1180.064" y="726.152" type="curve" smooth="yes"/>
      <point x="1180.064" y="259.87210666666664"/>
      <point x="1000.2479999999999" y="76.96000000000001"/>
      <point x="682.448" y="76.96000000000001" type="curve" smooth="yes"/>
      <point x="393.512" y="76.96000000000001" type="line"/>
      <point x="376.12800000000004" y="0.0" type="line"/>
      <point x="722.536" y="0.0" type="line" smooth="yes"/>
      <point x="1177.536" y="0.0"/>
      <point x="1521.536" y="253.0"/>
      <point x="1521.536" y="748.0" type="curve" smooth="yes"/>
      <point x="1521.536" y="1182.0"/>
      <point x="1225.96" y="1430.0"/>
      <point x="708.536" y="1430.0" type="curve" smooth="yes"/>
      <point x="376.12800000000004" y="1430.0" type="line"/>
      <point x="393.512" y="1353.04" type="line"/>
      <point x="650.264" y="1353.04" type="line" smooth="yes"/>
      <point x="1002.4" y="1353.04"/>
      <point x="1180.064" y="1149.8719999999998"/>
    </contour>
    <contour>
      <point x="59.096" y="0.0" type="line"/>
      <point x="556.88" y="0.0" type="line"/>
      <point x="556.88" y="1430.0" type="line"/>
      <point x="59.096" y="1430.0" type="line"/>
      <point x="59.096" y="1396.76" type="line"/>
      <point x="222.83200000000002" y="1353.6399999999999" type="line"/>
      <point x="222.83200000000002" y="77.36" type="line"/>
      <point x="59.096" y="32.816" type="line"/>
    </contour>
  </outline>
</glyph>
<glyph name="K" format="2">
  <advance width="1630.328"/>
  <unicode hex="004B"/>
  <anchor x="829.568" y="0.0" name="bottom"/>
  <anchor x="842.24" y="1430.0" name="UCtop"/>
  <outline>
    <contour>
      <point x="1533.2240000000002" y="76.328" type="line"/>
      <point x="834.8240000000001" y="927.016" type="line"/>
      <point x="667.896" y="781.72" type="line"/>
      <point x="1364.144" y="1352.248" type="line"/>
      <point x="1540.112" y="1396.76" type="line"/>
      <point x="1540.112" y="1430.0" type="line"/>
      <point x="1081.448" y="1430.0" type="line"/>
      <point x="1081.448" y="1396.76" type="line"/>
      <point x="1262.968" y="1352.7920000000001" type="line"/>
      <point x="584.5759999999999" y="792.0880000000001" type="line"/>
      <point x="462.712" y="792.0880000000001" type="line"/>
      <point x="462.712" y="715.1279999999999" type="line"/>
      <point x="583.728" y="715.1279999999999" type="line"/>
      <point x="1115.336" y="72.24000000000001" type="line"/>
      <point x="958.5039999999999" y="32.816" type="line"/>
      <point x="958.5039999999999" y="0.0" type="line"/>
      <point x="1669.624" y="0.0" type="line"/>
      <point x="1669.624" y="32.816" type="line"/>
    </contour>
    <contour>
      <point x="556.88" y="1353.6399999999999" type="line"/>
      <point x="720.6160000000001" y="1396.76" type="line"/>
      <point x="720.6160000000001" y="1430.0" type="line"/>
      <point x="59.096" y="1430.0" type="line"/>
      <point x="59.096" y="1396.76" type="line"/>
      <point x="222.83200000000002" y="1353.6399999999999" type="line"/>
      <point x="222.83200000000002" y="77.36" type="line"/>
      <point x="59.096" y="32.816" type="line"/>
      <point x="59.096" y="0.0" type="line"/>
      <point x="720.616" y="0.0" type="line"/>
      <point x="720.616" y="32.816" type="line"/>
      <point x="556.88" y="77.36" type="line"/>
    </contour>
  </outline>
</glyph>
<glyph name="L" format="2">
  <advance width="1317.68"/>
  <unicode hex="004C"/>
  <anchor x="389.856" y="1430.0" name="UCtop"/>
  <anchor x="651.376" y="0.0" name="bottom"/>
  <anchor x="1061.4080000000001" y="773.0" name="mid"/>
  <anchor x="786.1279999999999" y="1430.0" name="right"/>
  <outline>
    <contour>
      <point x="1186.136" y="-66.296" type="line"/>
      <point x="1302.3120000000001" y="436.128" type="line"/>
      <point x="1268.832" y="444.824" type="line"/>
      <point x="996.336" y="43.056" type="line"/>
      <point x="1155.0" y="76.96000000000001" type="line"/>
      <point x="360.57599999999996" y="76.96000000000001" type="line"/>
      <point x="360.57599999999996" y="0.0" type="line"/>
      <point x="1027.664" y="0.0" type="line"/>
      <point x="1168.808" y="-66.296" type="line"/>
    </contour>
    <contour>
      <point x="556.88" y="1353.6399999999999" type="line"/>
      <point x="720.6160000000001" y="1396.76" type="line"/>
      <point x="720.6160000000001" y="1430.0" type="line"/>
      <point x="59.096" y="1430.0" type="line"/>
      <point x="59.096" y="1396.76" type="line"/>
      <point x="222.83200000000002" y="1353.6399999999999" type="line"/>
      <point x="222.83200000000002" y="77.36" type="line"/>
      <point x="59.096" y="32.816" type="line"/>
      <point x="59.096" y="0.0" type="line"/>
      <point x="556.88" y="0.0" type="line"/>
    </contour>
  </outline>
</glyph>
<glyph name="R" format="2">
  <advance width="1507.056"/>
  <unicode hex="0052"/>
  <anchor x="723.2320000000001" y="1430.0" name="UCtop"/>
  <anchor x="813.552" y="0.0" name="bottom"/>
  <outline>
    <contour>
      <point x="692.568" y="773.0880000000001" type="curve" smooth="yes"/>
      <point x="283.976" y="773.0880000000001" type="line"/>
      <point x="340.79200000000003" y="700.736" type="line"/>
      <point x="676.0640000000001" y="700.736" type="line" smooth="yes"/>
      <point x="758.704" y="700.736"/>
      <point x="803.216" y="677.336"/>
      <point x="859.6800000000001" y="537.936" type="curve" smooth="yes"/>
      <point x="1002.9119999999999" y="177.32799999999997" type="line" smooth="yes"/>
      <point x="1072.496" y="0.23999999999999932"/>
      <point x="1138.768" y="-30.904"/>
      <point x="1546.512" y="0.0" type="curve"/>
      <point x="1546.512" y="49.416" type="line"/>
      <point x="1432.3919999999998" y="48.416"/>
      <point x="1396.696" y="66.928"/>
      <point x="1334.744" y="215.032" type="curve" smooth="yes"/>
      <point x="1216.752" y="499.84000000000003" type="line" smooth="yes"/>
      <point x="1155.3519999999999" y="657.016"/>
      <point x="1066.1519999999998" y="736.304"/>
      <point x="860.68" y="742.968" type="curve"/>
      <point x="860.68" y="739.544" type="line"/>
      <point x="1158.432" y="751.7280000000001"/>
      <point x="1312.7920000000001" y="905.304"/>
      <point x="1312.7920000000001" y="1088.512" type="curve" smooth="yes"/>
      <point x="1312.7920000000001" y="1283.576"/>
      <point x="1178.7920000000001" y="1430.0"/>
      <point x="777.2479999999999" y="1430.0" type="curve" smooth="yes"/>
      <point x="349.272" y="1430.0" type="line"/>
      <point x="293.728" y="1357.6480000000001" type="line"/>
      <point x="667.544" y="1357.6480000000001" type="line" smooth="yes"/>
      <point x="893.4879999999999" y="1357.6480000000001"/>
      <point x="985.344" y="1258.64"/>
      <point x="985.344" y="1072.096" type="curve" smooth="yes"/>
      <point x="985.344" y="875.424"/>
      <point x="880.576" y="773.0880000000001"/>
    </contour>
    <contour>
      <point x="558.5759999999999" y="1430.0" type="line"/>
      <point x="56.552" y="1430.0" type="line"/>
      <point x="56.552" y="1396.76" type="line"/>
      <point x="224.52800000000002" y="1350.2479999999998" type="line"/>
      <point x="224.52800000000002" y="80.752" type="line"/>
      <point x="56.552" y="32.816" type="line"/>
      <point x="56.552" y="0.0" type="line"/>
      <point x="726.552" y="0.0" type="line"/>
      <point x="726.552" y="32.816" type="line"/>
      <point x="558.5759999999999" y="80.752" type="line"/>
    </contour>
  </outline>
</glyph>
<glyph name="U" format="2">
  <advance width="1617.432"/>
  <unicode hex="0055"/>
  <anchor x="878.976" y="1430.0" name="UCtop"/>
  <anchor x="1039.936" y="0.0" name="right"/>
  <anchor x="878.976" y="0.0" name="bottom"/>
  <anchor x="1446.016" y="1428.0" name="horn"/>
  <outline>
    <contour>
      <point x="1351.968" y="576.96" type="line" smooth="yes"/>
      <point x="1351.968" y="266.656"/>
      <point x="1200.784" y="140.39999999999998"/>
      <point x="933.048" y="140.39999999999998" type="curve" smooth="yes"/>
      <point x="660.248" y="140.39999999999998"/>
      <point x="521.4559999999999" y="272.74399999999997"/>
      <point x="521.4559999999999" y="568.904" type="curve" smooth="yes"/>
      <point x="521.4559999999999" y="1353.6399999999999" type="line"/>
      <point x="685.192" y="1396.76" type="line"/>
      <point x="685.192" y="1430.0" type="line"/>
      <point x="23.672" y="1430.0" type="line"/>
      <point x="23.672" y="1396.76" type="line"/>
      <point x="187.40800000000002" y="1353.6399999999999" type="line"/>
      <point x="187.40800000000002" y="582.12" type="line" smooth="yes"/>
      <point x="187.40800000000002" y="177.17152745424295"/>
      <point x="409.552" y="-24.240000000000002"/>
      <point x="827.528" y="-24.240000000000002" type="curve" smooth="yes"/>
      <point x="1204.912" y="-24.240000000000002"/>
      <point x="1427.72" y="171.07165957446804"/>
      <point x="1427.72" y="560.808" type="curve" smooth="yes"/>
      <point x="1427.72" y="1353.0639999999999" type="line"/>
      <point x="1591.456" y="1396.76" type="line"/>
      <point x="1591.456" y="1430.0" type="line"/>
      <point x="1175.016" y="1430.0" type="line"/>
      <point x="1175.016" y="1396.76" type="line"/>
      <point x="1351.968" y="1353.0639999999999" type="line"/>
    </contour>
  </outline>
</glyph>
<glyph name="V" format="2">
  <advance width="1511.792"/>
  <unicode hex="0056"/>
  <anchor x="842.256" y="1430.0" name="UCtop"/>
  <anchor x="801.512" y="0.0" name="bottom"/>
  <outline>
    <contour>
      <point x="107.488" y="1349.52" type="line"/>
      <point x="725.696" y="-11.52" type="line"/>
      <point x="880.72" y="-11.52" type="line"/>
      <point x="1375.6399999999999" y="1347.456" type="line"/>
      <point x="1528.6399999999999" y="1398.032" type="line"/>
      <point x="1528.6399999999999" y="1430.0" type="line"/>
      <point x="1117.096" y="1430.0" type="line"/>
      <point x="1117.096" y="1398.032" type="line"/>
      <point x="1294.8" y="1350.456" type="line"/>
      <point x="903.304" y="238.176" type="line"/>
      <point x="956.288" y="258.52799999999996" type="line"/>
      <point x="467.8" y="1351.52" type="line"/>
      <point x="643.016" y="1397.184" type="line"/>
      <point x="643.016" y="1430.0" type="line"/>
      <point x="-48.512" y="1430.0" type="line"/>
      <point x="-48.512" y="1397.184" type="line"/>
    </contour>
  </outline>
</glyph>
<glyph name="W" format="2">
  <advance width="2158.624"/>
  <unicode hex="0057"/>
  <anchor x="1192.7839999999999" y="1430.0" name="UCtop"/>
  <anchor x="1146.144" y="0.0" name="bottom"/>
  <outline>
    <contour>
      <point x="1105.672" y="1150.7679999999998" type="line"/>
      <point x="1043.936" y="1125.328" type="line"/>
      <point x="1498.952" y="-11.52" type="line"/>
      <point x="1653.976" y="-11.52" type="line"/>
      <point x="2026.896" y="1347.456" type="line"/>
      <point x="2179.896" y="1398.032" type="line"/>
      <point x="2179.896" y="1430.0" type="line"/>
      <point x="1767.08" y="1430.0" type="line"/>
      <point x="1767.08" y="1398.032" type="line"/>
      <point x="1944.784" y="1350.456" type="line"/>
      <point x="1669.224" y="284.392" type="line"/>
      <point x="1726.76" y="292.024" type="line"/>
      <point x="1286.384" y="1441.52" type="line"/>
      <point x="1124.176" y="1441.52" type="line"/>
      <point x="717.128" y="239.024" type="line"/>
      <point x="791.6" y="298.808" type="line"/>
      <point x="479.648" y="1351.52" type="line"/>
      <point x="654.864" y="1397.184" type="line"/>
      <point x="654.864" y="1430.0" type="line"/>
      <point x="-34.936" y="1430.0" type="line"/>
      <point x="-34.936" y="1397.184" type="line"/>
      <point x="121.064" y="1349.52" type="line"/>
      <point x="545.032" y="-11.52" type="line"/>
      <point x="700.056" y="-11.52" type="line"/>
    </contour>
  </outline>
</glyph>
<glyph name="X" format="2">
  <advance width="1551.28"/>
  <unicode hex="0058"/>
  <anchor x="817.3040000000001" y="1430.0" name="UCtop"/>
  <anchor x="740.344" y="0.0" name="bottom"/>
  <outline>
    <contour>
      <point x="726.568" y="669.528" type="line"/>
      <point x="841.2" y="750.24" type="line"/>
      <point x="1323.712" y="1347.032" type="line"/>
      <point x="1470.776" y="1396.76" type="line"/>
      <point x="1470.776" y="1430.0" type="line"/>
      <point x="1055.2" y="1430.0" type="line"/>
      <point x="1055.2" y="1396.76" type="line"/>
      <point x="1232.48" y="1350.032" type="line"/>
      <point x="799.112" y="808.504" type="line"/>
      <point x="685.2080000000001" y="727.672" type="line"/>
      <point x="150.152" y="82.968" type="line"/>
      <point x="1.8159999999999998" y="33.24" type="line"/>
      <point x="1.8159999999999998" y="0.0" type="line"/>
      <point x="417.81600000000003" y="0.0" type="line"/>
      <point x="417.81600000000003" y="33.24" type="line"/>
      <point x="240.96" y="79.968" type="line"/>
    </contour>
    <contour>
      <point x="1040.392" y="80.176" type="line"/>
      <point x="868.144" y="32.816" type="line"/>
      <point x="868.144" y="0.0" type="line"/>
      <point x="1582.816" y="0.0" type="line"/>
      <point x="1582.816" y="32.816" type="line"/>
      <point x="1428.512" y="82.176" type="line"/>
      <point x="890.096" y="864.008" type="line"/>
      <point x="877.52" y="882.008" type="line"/>
      <point x="554.68" y="1349.8239999999998" type="line"/>
      <point x="728.1999999999999" y="1396.76" type="line"/>
      <point x="728.1999999999999" y="1430.0" type="line"/>
      <point x="13.104000000000001" y="1430.0" type="line"/>
      <point x="13.104000000000001" y="1396.76" type="line"/>
      <point x="168.68" y="1347.8239999999998" type="line"/>
      <point x="646.944" y="651.1759999999999" type="line"/>
      <point x="662.672" y="627.872" type="line"/>
    </contour>
  </outline>
</glyph>
<glyph name="Y" format="2">
  <advance width="1487.096"/>
  <unicode hex="0059"/>
  <anchor x="802.1120000000001" y="1430.0" name="UCtop"/>
  <anchor x="765.304" y="0.0" name="bottom"/>
  <outline>
    <contour>
      <point x="122.096" y="1350.368" type="line"/>
      <point x="598.28" y="664.2080000000001" type="line"/>
      <point x="598.28" y="77.36" type="line"/>
      <point x="434.544" y="32.816" type="line"/>
      <point x="434.544" y="0.0" type="line"/>
      <point x="1096.064" y="0.0" type="line"/>
      <point x="1096.064" y="32.816" type="line"/>
      <point x="932.328" y="77.36" type="line"/>
      <point x="932.328" y="667.296" type="line"/>
      <point x="1339.064" y="1347.456" type="line"/>
      <point x="1490.7920000000001" y="1396.76" type="line"/>
      <point x="1490.7920000000001" y="1430.0" type="line"/>
      <point x="1077.736" y="1430.0" type="line"/>
      <point x="1077.736" y="1396.76" type="line"/>
      <point x="1256.288" y="1350.456" type="line"/>
      <point x="872.552" y="701.5360000000001" type="line"/>
      <point x="930.48" y="707.048" type="line"/>
      <point x="497.616" y="1352.368" type="line"/>
      <point x="681.072" y="1396.76" type="line"/>
      <point x="681.072" y="1430.0" type="line"/>
      <point x="-27.967999999999996" y="1430.0" type="line"/>
      <point x="-27.967999999999996" y="1396.76" type="line"/>
    </contour>
  </outline>
</glyph>
<glyph name="Z" format="2">
  <advance width="1386.768"/>
  <unicode hex="005A"/>
  <anchor x="733.784" y="1430.0" name="UCtop"/>
  <anchor x="688.3439999999999" y="0.0" name="bottom"/>
  <outline>
    <contour>
      <point x="1275.224" y="1430.0" type="line"/>
      <point x="299.576" y="1430.0" type="line"/>
      <point x="159.66400000000002" y="1501.0559999999998" type="line"/>
      <point x="143.27200000000002" y="1501.0559999999998" type="line"/>
      <point x="51.976" y="1008.408" type="line"/>
      <point x="78.368" y="1000.44" type="line"/>
      <point x="303.12" y="1353.04" type="line"/>
      <point x="1202.376" y="1353.04" type="line"/>
      <point x="932.568" y="1414.632" type="line"/>
      <point x="90.824" y="27.959999999999997" type="line"/>
      <point x="90.824" y="0.0" type="line"/>
      <point x="1094.44" y="0.0" type="line"/>
      <point x="1245.008" y="-64.72" type="line"/>
      <point x="1267.52" y="-64.72" type="line"/>
      <point x="1350.152" y="430.648" type="line"/>
      <point x="1321.456" y="439.04" type="line"/>
      <point x="1082.4080000000001" y="76.96000000000001" type="line"/>
      <point x="290.296" y="76.96000000000001" type="line"/>
      <point x="435.904" y="18.792" type="line"/>
      <point x="1275.224" y="1401.464" type="line"/>
    </contour>
  </outline>
</glyph>
<glyph name="b" format="2">
  <advance width="1220.3919999999998"/>
  <unicode hex="0062"/>
  <anchor x="624.816" y="1474.5200000000002" name="UCtop"/>
  <anchor x="606.0160000000001" y="0.0" name="bottom"/>
  <outline>
    <contour>
      <point x="201.272" y="65.24" type="line"/>
      <point x="318.624" y="2.032"/>
      <point x="446.624" y="-24.240000000000002"/>
      <point x="579.312" y="-24.240000000000002" type="curve" smooth="yes"/>
      <point x="914.728" y="-24.240000000000002"/>
      <point x="1155.416" y="188.64"/>
      <point x="1155.416" y="572.6" type="curve" smooth="yes"/>
      <point x="1155.416" y="873.896"/>
      <point x="1005.7760000000001" y="1048.24"/>
      <point x="753.104" y="1048.24" type="curve" smooth="yes"/>
      <point x="640.136" y="1048.24"/>
      <point x="542.336" y="1004.5360000000001"/>
      <point x="364.488" y="814.112" type="curve"/>
      <point x="373.128" y="786.904" type="line"/>
      <point x="446.44" y="855.616"/>
      <point x="517.272" y="879.864"/>
      <point x="600.168" y="879.864" type="curve" smooth="yes"/>
      <point x="771.736" y="879.864"/>
      <point x="851.72" y="766.7280000000001"/>
      <point x="851.72" y="485.816" type="curve" smooth="yes"/>
      <point x="851.72" y="166.528"/>
      <point x="763.4639999999999" y="34.36"/>
      <point x="613.256" y="34.36" type="curve" smooth="yes"/>
      <point x="502.784" y="34.36"/>
      <point x="427.28" y="109.704"/>
      <point x="427.28" y="224.59199999999998" type="curve" smooth="yes"/>
      <point x="427.28" y="1300.768" type="line"/>
      <point x="434.768" y="1488.24" type="line"/>
      <point x="416.984" y="1488.24" type="line"/>
      <point x="-22.96" y="1391.768" type="line"/>
      <point x="-22.96" y="1369.136" type="line"/>
      <point x="55.04" y="1307.8035555555557"/>
      <point x="109.584" y="1264.3241481481482"/>
      <point x="135.584" y="1243.88" type="curve"/>
      <point x="135.584" y="221.60799999999998" type="line"/>
      <point x="88.8" y="-28.424" type="line"/>
      <point x="103.496" y="-37.12" type="line"/>
      <point x="325.968" y="81.36800000000001" type="line"/>
    </contour>
  </outline>
</glyph>
<glyph name="d" format="2">
  <advance width="1244.968"/>
  <unicode hex="0064"/>
  <anchor x="1083.384" y="1444.416" name="right"/>
  <anchor x="608.864" y="1430.0" name="UCtop"/>
  <anchor x="628.4399999999999" y="0.0" name="bottom"/>
  <anchor x="872.528" y="1166.3120000000001" name="center"/>
  <outline>
    <contour>
      <point x="791.6880000000001" y="799.4079999999999" type="curve" smooth="yes"/>
      <point x="791.6880000000001" y="129.688" type="line"/>
      <point x="803.984" y="-33.208" type="line"/>
      <point x="819.16" y="-33.208" type="line"/>
      <point x="1233.904" y="33.656" type="line"/>
      <point x="1233.904" y="59.471999999999994" type="line"/>
      <point x="1191.904" y="81.25248052124338"/>
      <point x="1107.384" y="123.74601113071807"/>
      <point x="1083.384" y="136.192" type="curve"/>
      <point x="1083.384" y="1306.528" type="line"/>
      <point x="1091.4479999999999" y="1488.24" type="line"/>
      <point x="1078.272" y="1488.24" type="line"/>
      <point x="629.112" y="1390.04" type="line"/>
      <point x="629.112" y="1365.6799999999998" type="line"/>
      <point x="686.112" y="1326.1591192910703"/>
      <point x="767.6880000000001" y="1269.7363708248124"/>
      <point x="791.6880000000001" y="1253.096" type="curve"/>
      <point x="791.6880000000001" y="952.384" type="line"/>
      <point x="996.072" y="968.5120000000001" type="line"/>
      <point x="889.7439999999999" y="1024.088"/>
      <point x="763.016" y="1048.24"/>
      <point x="639.6560000000001" y="1048.24" type="curve" smooth="yes"/>
      <point x="305.08799999999997" y="1048.24"/>
      <point x="63.552" y="835.784"/>
      <point x="63.552" y="462.42400000000004" type="curve" smooth="yes"/>
      <point x="63.552" y="170.456"/>
      <point x="228.28" y="-24.240000000000002"/>
      <point x="488.584" y="-24.240000000000002" type="curve" smooth="yes"/>
      <point x="603.248" y="-24.240000000000002"/>
      <point x="696.3839999999999" y="20.736"/>
      <point x="854.0559999999999" y="211.584" type="curve"/>
      <point x="845.4159999999999" y="237.52" type="line"/>
      <point x="782.28" y="170.50400000000002"/>
      <point x="708.904" y="144.13600000000002"/>
      <point x="623.0400000000001" y="144.13600000000002" type="curve" smooth="yes"/>
      <point x="449.77599999999995" y="144.13600000000002"/>
      <point x="367.24800000000005" y="259.816"/>
      <point x="367.24800000000005" y="551.328" type="curve" smooth="yes"/>
      <point x="367.24800000000005" y="858.3199999999999"/>
      <point x="455.928" y="989.64"/>
      <point x="605.712" y="989.64" type="curve" smooth="yes"/>
      <point x="716.184" y="989.64"/>
      <point x="791.6880000000001" y="914.2959999999999"/>
    </contour>
  </outline>
</glyph>
<glyph name="e" format="2">
  <advance width="1028.8239999999998"/>
  <unicode hex="0065"/>
  <anchor x="539.1759999999999" y="1024.0" name="top"/>
  <anchor x="990.032" y="0.0" name="right"/>
  <anchor x="551.896" y="0.0" name="bottom"/>
  <outline>
    <contour>
      <point x="573.504" y="1048.24" type="curve" smooth="yes"/>
      <point x="243.368" y="1048.24"/>
      <point x="63.128" y="790.576"/>
      <point x="63.128" y="492.30400000000003" type="curve" smooth="yes"/>
      <point x="63.128" y="161.816"/>
      <point x="263.824" y="-24.240000000000002"/>
      <point x="548.992" y="-24.240000000000002" type="curve" smooth="yes"/>
      <point x="726.104" y="-24.240000000000002"/>
      <point x="855.008" y="54.36000000000001"/>
      <point x="990.032" y="287.704" type="curve"/>
      <point x="968.52" y="305.06399999999996" type="line"/>
      <point x="886.256" y="211.52"/>
      <point x="792.792" y="174.72799999999998"/>
      <point x="684.0640000000001" y="174.72799999999998" type="curve" smooth="yes"/>
      <point x="462.59999999999997" y="174.72799999999998"/>
      <point x="343.86400000000003" y="301.12800000000004"/>
      <point x="343.86400000000003" y="619.168" type="curve" smooth="yes"/>
      <point x="343.86400000000003" y="880.376"/>
      <point x="415.848" y="986.096"/>
      <point x="540.9599999999999" y="986.096" type="curve" smooth="yes"/>
      <point x="638.4879999999999" y="986.096"/>
      <point x="687.072" y="902.512"/>
      <point x="702.56" y="668.008" type="curve"/>
      <point x="833.136" y="714.3679999999999" type="line"/>
      <point x="298.096" y="714.3679999999999" type="line"/>
      <point x="298.096" y="642.376" type="line"/>
      <point x="970.2719999999999" y="642.376" type="line"/>
      <point x="951.0" y="901.4"/>
      <point x="812.3359999999999" y="1048.24"/>
    </contour>
  </outline>
</glyph>
<glyph name="f" format="2">
  <advance width="802.312"/>
  <unicode hex="0066"/>
  <anchor x="588.736" y="1430.0" name="UCtop"/>
  <anchor x="335.096" y="0.0" name="bottom"/>
  <outline>
    <contour>
      <point x="240.70399999999998" y="885.048" type="line"/>
      <point x="785.824" y="885.048" type="line"/>
      <point x="804.7919999999999" y="1024.0" type="line"/>
      <point x="329.816" y="1024.0" type="line"/>
      <point x="216.79199999999997" y="1040.448" type="line"/>
      <point x="22.520000000000003" y="967.336" type="line"/>
      <point x="22.520000000000003" y="936.184" type="line"/>
      <point x="203.52" y="862.5680000000001" type="line"/>
    </contour>
    <contour>
      <point x="482.67199999999997" y="61.664" type="line"/>
      <point x="482.67199999999997" y="1232.2160000000001" type="line" smooth="yes"/>
      <point x="482.67199999999997" y="1352.144"/>
      <point x="522.04" y="1409.76"/>
      <point x="608.568" y="1409.76" type="curve" smooth="yes"/>
      <point x="736.416" y="1409.76"/>
      <point x="859.6560000000001" y="1237.744"/>
      <point x="890.048" y="1237.744" type="curve" smooth="yes"/>
      <point x="946.408" y="1237.744"/>
      <point x="995.824" y="1289.528"/>
      <point x="995.824" y="1348.552" type="curve" smooth="yes"/>
      <point x="995.824" y="1429.576"/>
      <point x="914.768" y="1488.24"/>
      <point x="726.4879999999999" y="1488.24" type="curve" smooth="yes"/>
      <point x="404.032" y="1488.24"/>
      <point x="187.52" y="1287.76"/>
      <point x="187.52" y="987.0160000000001" type="curve" smooth="yes"/>
      <point x="187.52" y="61.664" type="line"/>
      <point x="68.688" y="29.544" type="line"/>
      <point x="68.688" y="0.0" type="line"/>
      <point x="621.504" y="0.0" type="line"/>
      <point x="621.504" y="29.544" type="line"/>
    </contour>
  </outline>
</glyph>
<glyph name="h" format="2">
  <advance width="1246.6879999999999"/>
  <unicode hex="0068"/>
  <anchor x="625.712" y="1430.424" name="UCtop"/>
  <anchor x="628.736" y="0.0" name="bottom"/>
  <anchor x="364.232" y="1166.3120000000001" name="center"/>
  <outline>
    <contour>
      <point x="692.9920000000001" y="29.544" type="line"/>
      <point x="692.9920000000001" y="0.0" type="line"/>
      <point x="1217.84" y="0.0" type="line"/>
      <point x="1217.84" y="29.544" type="line"/>
      <point x="1099.432" y="61.664" type="line"/>
      <point x="1099.432" y="733.96" type="line" smooth="yes"/>
      <point x="1099.432" y="941.032"/>
      <point x="1009.1039999999999" y="1044.0"/>
      <point x="820.312" y="1044.0" type="curve" smooth="yes"/>
      <point x="683.928" y="1044.0"/>
      <point x="611.984" y="1014.1199999999999"/>
      <point x="405.104" y="814.176" type="curve"/>
      <point x="412.59200000000004" y="794.872" type="line"/>
      <point x="477.13599999999997" y="825.72"/>
      <point x="554.12" y="850.696"/>
      <point x="633.2560000000001" y="850.696" type="curve" smooth="yes"/>
      <point x="752.88" y="850.696"/>
      <point x="807.736" y="799.656"/>
      <point x="807.736" y="682.192" type="curve" smooth="yes"/>
      <point x="807.736" y="60.391999999999996" type="line"/>
    </contour>
    <contour>
      <point x="559.24" y="0.0" type="line"/>
      <point x="559.24" y="29.544" type="line"/>
      <point x="445.072" y="60.392" type="line"/>
      <point x="445.072" y="1036.384" type="line"/>
      <point x="445.072" y="1488.24" type="line"/>
      <point x="431.32" y="1488.24" type="line"/>
      <point x="-9.2" y="1385.376" type="line"/>
      <point x="-9.2" y="1361.016" type="line"/>
      <point x="68.8" y="1302.8518318563963"/>
      <point x="127.376" y="1259.3400560478678"/>
      <point x="153.37599999999998" y="1239.952" type="curve"/>
      <point x="153.37599999999998" y="61.664" type="line"/>
      <point x="34.544000000000004" y="29.544" type="line"/>
      <point x="34.544000000000004" y="0.0" type="line"/>
    </contour>
  </outline>
</glyph>
<glyph name="l" format="2">
  <advance width="601.904"/>
  <unicode hex="006C"/>
  <anchor x="291.376" y="1430.0" name="UCtop"/>
  <anchor x="446.8" y="1444.416" name="right"/>
  <anchor x="300.952" y="0.0" name="bottom"/>
  <anchor x="684.368" y="582.0" name="mid"/>
  <outline>
    <contour>
      <point x="446.8" y="61.664" type="line"/>
      <point x="446.8" y="1295.584" type="line"/>
      <point x="446.8" y="1488.24" type="line"/>
      <point x="433.048" y="1488.24" type="line"/>
      <point x="-7.472" y="1390.0400000000002" type="line"/>
      <point x="-7.472" y="1365.68" type="line"/>
      <point x="70.52799999999999" y="1311.5987948193592"/>
      <point x="129.10399999999998" y="1271.1230683935469"/>
      <point x="155.10399999999998" y="1253.096" type="curve"/>
      <point x="155.10399999999998" y="61.664" type="line"/>
      <point x="36.272000000000006" y="29.544" type="line"/>
      <point x="36.272000000000006" y="0.0" type="line"/>
      <point x="565.632" y="0.0" type="line"/>
      <point x="565.632" y="29.544" type="line"/>
    </contour>
  </outline>
</glyph>
<glyph name="p" format="2">
  <advance width="1243.0"/>
  <unicode hex="0070"/>
  <anchor x="605.72" y="1024.0" name="top"/>
  <anchor x="303.616" y="-440.76" name="bottom"/>
  <outline>
    <contour>
      <point x="873.904" y="485.81600000000003" type="curve" smooth="yes"/>
      <point x="873.904" y="168.224"/>
      <point x="786.4960000000001" y="34.36"/>
      <point x="635.44" y="34.36" type="curve" smooth="yes"/>
      <point x="524.968" y="34.36"/>
      <point x="449.464" y="109.70400000000001"/>
      <point x="449.464" y="224.59199999999998" type="curve" smooth="yes"/>
      <point x="449.464" y="868.68" type="line"/>
      <point x="449.464" y="1054.576" type="line"/>
      <point x="435.712" y="1054.576" type="line"/>
      <point x="27.912000000000003" y="943.6479999999999" type="line"/>
      <point x="27.912000000000003" y="919.288" type="line"/>
      <point x="101.912" y="852.1211348651349"/>
      <point x="131.768" y="829.9911688311688"/>
      <point x="157.768" y="806.392" type="curve"/>
      <point x="157.768" y="-379.096" type="line"/>
      <point x="38.936" y="-411.216" type="line"/>
      <point x="38.936" y="-440.76" type="line"/>
      <point x="588.2959999999999" y="-440.76" type="line"/>
      <point x="588.2959999999999" y="-411.216" type="line"/>
      <point x="449.464" y="-379.09599999999995" type="line"/>
      <point x="449.464" y="55.064" type="line"/>
      <point x="272.216" y="55.064" type="line"/>
      <point x="375.15200000000004" y="-0.5120000000000002"/>
      <point x="498.488" y="-24.240000000000002"/>
      <point x="618.0319999999999" y="-24.240000000000002" type="curve" smooth="yes"/>
      <point x="942.4240000000001" y="-24.240000000000002"/>
      <point x="1177.6" y="189.912"/>
      <point x="1177.6" y="572.6" type="curve" smooth="yes"/>
      <point x="1177.6" y="869.232"/>
      <point x="1035.592" y="1048.24"/>
      <point x="782.92" y="1048.24" type="curve" smooth="yes"/>
      <point x="665.288" y="1048.24"/>
      <point x="567.9119999999999" y="1004.112"/>
      <point x="386.672" y="814.112" type="curve"/>
      <point x="395.312" y="786.904" type="line"/>
      <point x="460.144" y="850.952"/>
      <point x="533.096" y="879.8639999999999"/>
      <point x="622.352" y="879.8639999999999" type="curve" smooth="yes"/>
      <point x="796.8879999999999" y="879.8639999999999"/>
      <point x="873.904" y="763.336"/>
    </contour>
  </outline>
</glyph>
<glyph name="r" format="2">
  <advance width="917.7199999999999"/>
  <unicode hex="0072"/>
  <anchor x="474.93600000000004" y="1024.0" name="top"/>
  <anchor x="314.496" y="0.0" name="bottom"/>
  <outline>
    <contour>
      <point x="796.24" y="1044.12" type="curve" smooth="yes"/>
      <point x="711.856" y="1044.12"/>
      <point x="650.192" y="1017.216"/>
      <point x="433.08" y="777.96" type="curve"/>
      <point x="433.504" y="732.264" type="line"/>
      <point x="480.144" y="778.296"/>
      <point x="521.208" y="801.968"/>
      <point x="580.0559999999999" y="801.968" type="curve" smooth="yes"/>
      <point x="651.808" y="801.968"/>
      <point x="691.112" y="774.88"/>
      <point x="763.2479999999999" y="774.88" type="curve" smooth="yes"/>
      <point x="844.512" y="774.88"/>
      <point x="908.7760000000001" y="841.808"/>
      <point x="908.7760000000001" y="928.92" type="curve" smooth="yes"/>
      <point x="908.7760000000001" y="998.944"/>
      <point x="865.264" y="1044.12"/>
    </contour>
    <contour>
      <point x="460.344" y="850.248" type="line"/>
      <point x="460.344" y="1054.576" type="line"/>
      <point x="446.59200000000004" y="1054.576" type="line"/>
      <point x="38.792" y="943.648" type="line"/>
      <point x="38.792" y="919.288" type="line"/>
      <point x="112.792" y="851.8409920079921"/>
      <point x="142.648" y="829.6655974025973"/>
      <point x="168.648" y="805.968" type="curve"/>
      <point x="168.648" y="61.664" type="line"/>
      <point x="49.816" y="29.544" type="line"/>
      <point x="49.816" y="0.0" type="line"/>
      <point x="599.176" y="0.0" type="line"/>
      <point x="599.176" y="29.544" type="line"/>
      <point x="460.344" y="61.664" type="line"/>
    </contour>
  </outline>
</glyph>
<glyph name="t" format="2">
  <advance width="824.76"/>
  <unicode hex="0074"/>
  <anchor x="475.59999999999997" y="0.0" name="bottom"/>
  <anchor x="486.65599999999995" y="1534.816" name="right"/>
  <outline>
    <contour>
      <point x="457.848" y="291.25600000000003" type="curve" smooth="yes"/>
      <point x="457.848" y="993.5120000000001" type="line"/>
      <point x="457.848" y="1225.5520000000001" type="line"/>
      <point x="442.488" y="1225.5520000000001" type="line"/>
      <point x="277.75230868167205" y="1127.5520000000001"/>
      <point x="58.749481724522596" y="1002.792"/>
      <point x="21.768" y="980.792" type="curve"/>
      <point x="21.768" y="960.008" type="line"/>
      <point x="167.0" y="852.752" type="line"/>
      <point x="167.0" y="265.56" type="line" smooth="yes"/>
      <point x="167.0" y="63.024"/>
      <point x="280.512" y="-24.816"/>
      <point x="438.608" y="-24.816" type="curve" smooth="yes"/>
      <point x="547.536" y="-24.816"/>
      <point x="633.4000000000001" y="11.696"/>
      <point x="835.5120000000001" y="147.13600000000002" type="curve"/>
      <point x="835.5120000000001" y="186.16" type="line"/>
      <point x="745.2719999999999" y="161.43200000000002"/>
      <point x="682.728" y="153.70399999999998"/>
      <point x="622.608" y="153.70399999999998" type="curve" smooth="yes"/>
      <point x="516.3679999999999" y="153.70399999999998"/>
      <point x="457.848" y="199.04"/>
    </contour>
    <contour>
      <point x="348.784" y="885.048" type="line"/>
      <point x="783.456" y="885.048" type="line"/>
      <point x="802.424" y="1024.0" type="line"/>
      <point x="348.784" y="1024.0" type="line"/>
    </contour>
  </outline>
</glyph>
<glyph name="v" format="2">
  <advance width="1187.1200000000001"/>
  <unicode hex="0076"/>
  <anchor x="627.2479999999999" y="1024.0" name="top"/>
  <anchor x="604.5279999999999" y="0.0" name="bottom"/>
  <outline>
    <contour>
      <point x="1076.656" y="962.848" type="line"/>
      <point x="1185.48" y="991.0" type="line"/>
      <point x="1185.48" y="1024.0" type="line"/>
      <point x="868.072" y="1024.0" type="line"/>
      <point x="868.072" y="991.0" type="line"/>
      <point x="994.9599999999999" y="963.12" type="line"/>
      <point x="695.928" y="161.888" type="line"/>
      <point x="749.256" y="178.84799999999998" type="line"/>
      <point x="411.824" y="957.968" type="line"/>
      <point x="539.8639999999999" y="991.0" type="line"/>
      <point x="539.8639999999999" y="1024.0" type="line"/>
      <point x="-27.448" y="1024.0" type="line"/>
      <point x="-27.448" y="992.2719999999999" type="line"/>
      <point x="86.136" y="951.728" type="line"/>
      <point x="536.44" y="-14.975999999999999" type="line"/>
      <point x="684.1279999999999" y="-14.975999999999999" type="line"/>
    </contour>
  </outline>
</glyph>
<glyph name="y" format="2">
  <advance width="1164.6960000000001"/>
  <unicode hex="0079"/>
  <anchor x="622.92" y="1024.0" name="top"/>
  <anchor x="824.496" y="-116.52799999999999" name="bottom"/>
  <outline>
    <contour>
      <point x="762.32" y="254.208" type="line"/>
      <point x="415.704" y="957.968" type="line"/>
      <point x="543.744" y="991.0" type="line"/>
      <point x="543.744" y="1024.0" type="line"/>
      <point x="-22.991999999999997" y="1024.0" type="line"/>
      <point x="-22.991999999999997" y="992.2719999999999" type="line"/>
      <point x="90.59200000000001" y="951.728" type="line"/>
      <point x="617.3439999999999" y="-70.944" type="line"/>
    </contour>
    <contour>
      <point x="284.824" y="-460.76" type="curve" smooth="yes"/>
      <point x="436.08799999999997" y="-460.76"/>
      <point x="538.5999999999999" y="-374.888"/>
      <point x="646.528" y="-99.03199999999998" type="curve" smooth="yes"/>
      <point x="1057.2879999999998" y="962.848" type="line"/>
      <point x="1171.8719999999998" y="991.0" type="line"/>
      <point x="1171.8719999999998" y="1024.0" type="line"/>
      <point x="845.064" y="1024.0" type="line"/>
      <point x="845.064" y="991.0" type="line"/>
      <point x="975.408" y="963.12" type="line"/>
      <point x="712.928" y="212.128" type="line"/>
      <point x="629.8000000000001" y="15.695999999999998" type="line"/>
      <point x="569.424" y="-119.52" type="line" smooth="yes"/>
      <point x="518.176" y="-231.024"/>
      <point x="461.936" y="-258.48"/>
      <point x="356.40000000000003" y="-258.48" type="curve" smooth="yes"/>
      <point x="269.344" y="-258.48"/>
      <point x="210.744" y="-213.448"/>
      <point x="191.648" y="-213.448" type="curve" smooth="yes"/>
      <point x="162.224" y="-213.448"/>
      <point x="122.832" y="-251.47199999999998"/>
      <point x="122.832" y="-315.256" type="curve" smooth="yes"/>
      <point x="122.832" y="-409.976"/>
      <point x="191.344" y="-460.76"/>
    </contour>
  </outline>
</glyph>
<glyph name="braceright" format="2">
  <advance width="590.6320000000001"/>
  <unicode hex="007D"/>
  <outline>
    <contour>
      <point x="551.296" y="643.6" type="line"/>
      <point x="488.44" y="649.024" type="line" smooth="yes"/>
      <point x="381.77599999999995" y="659.992"/>
      <point x="353.44" y="702.696"/>
      <point x="353.44" y="779.456" type="curve" smooth="yes"/>
      <point x="353.44" y="929.248"/>
      <point x="435.22400000000005" y="1068.9679999999998"/>
      <point x="435.22400000000005" y="1189.696" type="curve" smooth="yes"/>
      <point x="435.22400000000005" y="1337.24"/>
      <point x="334.50399999999996" y="1462.664"/>
      <point x="134.66400000000002" y="1481.392" type="curve" smooth="yes"/>
      <point x="44.608" y="1489.392" type="line"/>
      <point x="38.184" y="1458.848" type="line"/>
      <point x="96.488" y="1449.8480000000002" type="line" smooth="yes"/>
      <point x="207.944" y="1433.424"/>
      <point x="247.12800000000001" y="1350.728"/>
      <point x="247.12800000000001" y="1240.816" type="curve" smooth="yes"/>
      <point x="247.12800000000001" y="1126.664"/>
      <point x="202.4" y="1002.36"/>
      <point x="202.4" y="855.208" type="curve" smooth="yes"/>
      <point x="202.4" y="736.208"/>
      <point x="278.576" y="642.72"/>
      <point x="420.696" y="618.176" type="curve"/>
      <point x="420.696" y="634.0559999999999" type="line"/>
      <point x="278.576" y="610.088"/>
      <point x="202.4" y="516.024"/>
      <point x="202.4" y="397.024" type="curve" smooth="yes"/>
      <point x="202.4" y="249.87199999999999"/>
      <point x="247.12800000000001" y="125.568"/>
      <point x="247.12800000000001" y="11.416" type="curve" smooth="yes"/>
      <point x="247.12800000000001" y="-97.91999999999999"/>
      <point x="207.944" y="-180.61599999999999"/>
      <point x="96.488" y="-197.61599999999999" type="curve" smooth="yes"/>
      <point x="38.184" y="-206.616" type="line"/>
      <point x="44.608" y="-236.584" type="line"/>
      <point x="134.66400000000002" y="-228.584" type="line" smooth="yes"/>
      <point x="334.50399999999996" y="-211.008"/>
      <point x="435.22400000000005" y="-84.432"/>
      <point x="435.22400000000005" y="63.112" type="curve" smooth="yes"/>
      <point x="435.22400000000005" y="183.26399999999998"/>
      <point x="353.44" y="322.984"/>
      <point x="353.44" y="473.35200000000003" type="curve" smooth="yes"/>
      <point x="353.44" y="550.112"/>
      <point x="381.77599999999995" y="592.2399999999999"/>
      <point x="488.44" y="603.208" type="curve" smooth="yes"/>
      <point x="551.296" y="608.632" type="line"/>
    </contour>
  </outline>
</glyph>
<glyph name="brokenbar" format="2">
  <advance width="428.56"/>
  <unicode hex="00A6"/>
  <outline>
    <contour>
      <point x="253.672" y="725.0" type="line"/>
      <point x="253.672" y="1535.0" type="line"/>
      <point x="174.888" y="1535.0" type="line"/>
      <point x="174.888" y="725.0" type="line"/>
    </contour>
    <contour>
      <point x="174.888" y="-465.0" type="line"/>
      <point x="253.672" y="-465.0" type="line"/>
      <point x="253.672" y="345.0" type="line"/>
      <point x="174.888" y="345.0" type="line"/>
    </contour>
  </outline>
</glyph>
<glyph name="section" format="2">
  <advance width="1222.048"/>
  <unicode hex="00A7"/>
  <outline>
    <contour>
      <point x="521.1919999999999" y="-218.0" type="curve" smooth="yes"/>
      <point x="851.928" y="-218.0"/>
      <point x="1017.1999999999999" y="-60.672"/>
      <point x="1017.1999999999999" y="146.656" type="curve" smooth="yes"/>
      <point x="1017.1999999999999" y="544.688"/>
      <point x="281.18399999999997" y="431.22400000000005"/>
      <point x="281.18399999999997" y="713.36" type="curve" smooth="yes"/>
      <point x="281.18399999999997" y="793.4879999999999"/>
      <point x="327.43199999999996" y="857.192"/>
      <point x="401.992" y="884.376" type="curve"/>
      <point x="376.872" y="904.3439999999999" type="line"/>
      <point x="184.632" y="849.3439999999999"/>
      <point x="84.152" y="736.104"/>
      <point x="84.152" y="582.776" type="curve" smooth="yes"/>
      <point x="84.152" y="151.17600000000002"/>
      <point x="802.112" y="281.512"/>
      <point x="802.112" y="13.767999999999999" type="curve" smooth="yes"/>
      <point x="802.112" y="-85.33600000000001"/>
      <point x="728.3119999999999" y="-157.58399999999997"/>
      <point x="586.912" y="-157.58399999999997" type="curve" smooth="yes"/>
      <point x="416.872" y="-157.58399999999997"/>
      <point x="324.224" y="51.376"/>
      <point x="284.344" y="51.376" type="curve" smooth="yes"/>
      <point x="212.984" y="51.376"/>
      <point x="171.624" y="6.983999999999998"/>
      <point x="171.624" y="-58.49600000000001" type="curve" smooth="yes"/>
      <point x="171.624" y="-155.736"/>
      <point x="279.2" y="-218.0"/>
    </contour>
    <contour>
      <point x="939.712" y="546.496" type="curve" smooth="yes"/>
      <point x="939.712" y="464.64000000000004"/>
      <point x="888.856" y="396.904"/>
      <point x="811.4159999999999" y="374.328" type="curve"/>
      <point x="836.5360000000001" y="352.632" type="line"/>
      <point x="1027.048" y="400.71999999999997"/>
      <point x="1135.592" y="523.752"/>
      <point x="1135.592" y="678.808" type="curve" smooth="yes"/>
      <point x="1135.592" y="1114.528"/>
      <point x="421.08799999999997" y="972.6479999999999"/>
      <point x="421.08799999999997" y="1238.0240000000001" type="curve" smooth="yes"/>
      <point x="421.08799999999997" y="1324.456"/>
      <point x="479.33599999999996" y="1394.3999999999999"/>
      <point x="622.4639999999999" y="1394.3999999999999" type="curve" smooth="yes"/>
      <point x="793.6560000000001" y="1394.3999999999999"/>
      <point x="885.728" y="1184.288"/>
      <point x="923.88" y="1184.288" type="curve" smooth="yes"/>
      <point x="991.208" y="1184.288"/>
      <point x="1033.144" y="1226.952"/>
      <point x="1033.144" y="1290.7040000000002" type="curve" smooth="yes"/>
      <point x="1033.144" y="1382.184"/>
      <point x="931.3280000000001" y="1454.24"/>
      <point x="688.76" y="1454.24" type="curve" smooth="yes"/>
      <point x="362.632" y="1454.24"/>
      <point x="204.848" y="1304.4"/>
      <point x="204.848" y="1103.984" type="curve" smooth="yes"/>
      <point x="204.848" y="717.592"/>
      <point x="939.712" y="827.208"/>
    </contour>
  </outline>
</glyph>
<glyph name="guillemotleft" format="2">
  <advance width="924.264"/>
  <unicode hex="00AB"/>
  <outline>
    <contour>
      <point x="232.592" y="611.8399999999999" type="line"/>
      <point x="232.592" y="432.15999999999997" type="line"/>
      <point x="482.544" y="949.024" type="line"/>
      <point x="462.848" y="963.296" type="line"/>
      <point x="42.888000000000005" y="530.272" type="line"/>
      <point x="42.888000000000005" y="513.728" type="line"/>
      <point x="462.848" y="80.70400000000001" type="line"/>
      <point x="482.544" y="94.976" type="line"/>
    </contour>
    <contour>
      <point x="603.216" y="611.8399999999999" type="line"/>
      <point x="603.216" y="432.15999999999997" type="line"/>
      <point x="852.5920000000001" y="949.024" type="line"/>
      <point x="833.472" y="963.296" type="line"/>
      <point x="412.936" y="530.272" type="line"/>
      <point x="412.936" y="513.728" type="line"/>
      <point x="833.472" y="80.70400000000001" type="line"/>
      <point x="852.5920000000001" y="94.976" type="line"/>
    </contour>
  </outline>
</glyph>
<glyph name="registered" format="2">
  <advance width="1071.856"/>
  <unicode hex="00AE"/>
  <outline>
    <contour>
      <point x="533.64" y="1454.24" type="curve" smooth="yes"/>
      <point x="283.64" y="1454.24"/>
      <point x="104.64" y="1277.24"/>
      <point x="104.64" y="1028.24" type="curve" smooth="yes"/>
      <point x="104.64" y="780.24"/>
      <point x="283.64" y="600.24"/>
      <point x="533.64" y="600.24" type="curve" smooth="yes"/>
      <point x="785.64" y="600.24"/>
      <point x="967.64" y="780.24"/>
      <point x="967.64" y="1028.24" type="curve" smooth="yes"/>
      <point x="967.64" y="1277.24"/>
      <point x="785.64" y="1454.24"/>
    </contour>
    <contour>
      <point x="533.64" y="1404.424" type="curve" smooth="yes"/>
      <point x="752.52" y="1404.424"/>
      <point x="910.824" y="1251.1200000000001"/>
      <point x="910.824" y="1028.24" type="curve" smooth="yes"/>
      <point x="910.824" y="807.36"/>
      <point x="752.52" y="651.0559999999999"/>
      <point x="533.64" y="651.0559999999999" type="curve" smooth="yes"/>
      <point x="316.76" y="651.0559999999999"/>
      <point x="161.456" y="807.36"/>
      <point x="161.456" y="1028.24" type="curve" smooth="yes"/>
      <point x="161.456" y="1251.1200000000001"/>
      <point x="316.76" y="1404.424"/>
    </contour>
    <contour>
      <point x="452.576" y="1057.512" type="line"/>
      <point x="452.57599999999996" y="1023.6959999999999" type="line"/>
      <point x="536.8240000000001" y="1023.6959999999999" type="line" smooth="yes"/>
      <point x="573.368" y="1023.6959999999999"/>
      <point x="586.52" y="1012.0"/>
      <point x="595.856" y="978.5120000000001" type="curve" smooth="yes"/>
      <point x="614.376" y="902.4480000000001" type="line" smooth="yes"/>
      <point x="632.016" y="823.24"/>
      <point x="652.9200000000001" y="810.272"/>
      <point x="777.456" y="821.664" type="curve"/>
      <point x="777.456" y="846.904" type="line"/>
      <point x="751.0" y="846.904"/>
      <point x="737.88" y="852.7520000000001"/>
      <point x="728.2719999999999" y="889.4799999999999" type="curve" smooth="yes"/>
      <point x="708.176" y="962.0" type="line" smooth="yes"/>
      <point x="694.992" y="1019.272"/>
      <point x="665.752" y="1041.816"/>
      <point x="601.936" y="1044.664" type="curve"/>
      <point x="601.936" y="1043.664" type="line"/>
      <point x="684.328" y="1046.3919999999998"/>
      <point x="728.176" y="1091.664"/>
      <point x="728.176" y="1148.088" type="curve" smooth="yes"/>
      <point x="728.176" y="1204.664"/>
      <point x="690.6" y="1248.24"/>
      <point x="580.48" y="1248.24" type="curve" smooth="yes"/>
      <point x="452.576" y="1248.24" type="line"/>
      <point x="452.576" y="1214.0" type="line"/>
      <point x="532.752" y="1214.0" type="line" smooth="yes"/>
      <point x="594.216" y="1214.0"/>
      <point x="620.4" y="1191.12"/>
      <point x="620.4" y="1139.9679999999998" type="curve" smooth="yes"/>
      <point x="620.4" y="1085.512"/>
      <point x="592.4879999999999" y="1057.512"/>
      <point x="539.88" y="1057.512" type="curve" smooth="yes"/>
    </contour>
    <contour>
      <point x="386.04" y="1215.8480000000002" type="line"/>
      <point x="386.04" y="856.056" type="line"/>
      <point x="328.43199999999996" y="840.208" type="line"/>
      <point x="328.43199999999996" y="822.24" type="line"/>
      <point x="554.12" y="822.24" type="line"/>
      <point x="554.12" y="840.208" type="line"/>
      <point x="496.936" y="856.056" type="line"/>
      <point x="496.936" y="1248.24" type="line"/>
      <point x="328.43199999999996" y="1248.24" type="line"/>
      <point x="328.43199999999996" y="1230.272" type="line"/>
    </contour>
  </outline>
</glyph>
<glyph name="degree" format="2">
  <advance width="733.312"/>
  <unicode hex="00B0"/>
  <outline>
    <contour>
      <point x="366.368" y="1446.544" type="curve" smooth="yes"/>
      <point x="192.672" y="1446.544"/>
      <point x="67.82400000000001" y="1324.2720000000002"/>
      <point x="67.82400000000001" y="1150.0" type="curve" smooth="yes"/>
      <point x="67.82400000000001" y="975.7280000000001"/>
      <point x="192.672" y="853.456"/>
      <point x="366.368" y="853.456" type="curve" smooth="yes"/>
      <point x="540.64" y="853.456"/>
      <point x="665.4879999999999" y="975.7280000000001"/>
      <point x="665.4879999999999" y="1150.0" type="curve" smooth="yes"/>
      <point x="665.4879999999999" y="1324.2720000000002"/>
      <point x="540.64" y="1446.544"/>
    </contour>
    <contour>
      <point x="366.368" y="924.3280000000001" type="curve" smooth="yes"/>
      <point x="237.45600000000002" y="924.3280000000001"/>
      <point x="144.272" y="1014.5120000000001"/>
      <point x="144.272" y="1150.0" type="curve" smooth="yes"/>
      <point x="144.272" y="1285.488"/>
      <point x="237.45600000000002" y="1375.672"/>
      <point x="366.368" y="1375.672" type="curve" smooth="yes"/>
      <point x="495.856" y="1375.672"/>
      <point x="588.464" y="1285.488"/>
      <point x="588.464" y="1150.0" type="curve" smooth="yes"/>
      <point x="588.464" y="1014.5120000000001"/>
      <point x="495.856" y="924.3280000000001"/>
    </contour>
  </outline>
</glyph>
<glyph name="uni00B2" format="2">
  <advance width="728.44"/>
  <unicode hex="00B2"/>
  <outline>
    <contour>
      <point x="457.368" y="741.928" type="line"/>
      <point x="632.584" y="840.976" type="line"/>
      <point x="238.312" y="840.976" type="line"/>
      <point x="231.128" y="810.9440000000001" type="line"/>
      <point x="350.24" y="913.064" type="line" smooth="yes"/>
      <point x="553.536" y="1065.872"/>
      <point x="619.976" y="1136.592"/>
      <point x="619.976" y="1243.008" type="curve" smooth="yes"/>
      <point x="619.976" y="1360.272"/>
      <point x="525.256" y="1446.544"/>
      <point x="372.2" y="1446.544" type="curve" smooth="yes"/>
      <point x="196.12" y="1446.544"/>
      <point x="77.21600000000001" y="1331.4"/>
      <point x="32.824" y="1144.6480000000001" type="curve"/>
      <point x="67.336" y="1138.3760000000002" type="line"/>
      <point x="104.336" y="1252.32"/>
      <point x="174.21599999999998" y="1294.896"/>
      <point x="253.976" y="1294.896" type="curve" smooth="yes"/>
      <point x="339.73600000000005" y="1294.896"/>
      <point x="392.344" y="1244.1680000000001"/>
      <point x="392.344" y="1159.56" type="curve" smooth="yes"/>
      <point x="392.344" y="1081.168"/>
      <point x="349.10400000000004" y="991.7760000000001"/>
      <point x="211.89600000000002" y="845.504" type="curve" smooth="yes"/>
      <point x="60.368" y="675.696" type="line"/>
      <point x="60.368" y="662.0" type="line"/>
      <point x="535.688" y="662.0" type="line"/>
      <point x="597.592" y="628.184" type="line"/>
      <point x="611.984" y="628.184" type="line"/>
      <point x="687.9200000000001" y="950.616" type="line"/>
      <point x="672.8" y="950.616" type="line"/>
    </contour>
  </outline>
</glyph>
<glyph name="ordmasculine" format="2">
  <advance width="953.448"/>
  <unicode hex="00BA"/>
  <outline>
    <contour>
      <point x="136.008" y="565.76" type="line"/>
      <point x="817.016" y="565.76" type="line"/>
      <point x="817.016" y="633.24" type="line"/>
      <point x="136.008" y="633.24" type="line"/>
    </contour>
    <contour>
      <point x="477.93600000000004" y="833.24" type="curve" smooth="yes"/>
      <point x="379.864" y="833.24"/>
      <point x="341.336" y="941.5633567167442"/>
      <point x="341.336" y="1135.632" type="curve" smooth="yes"/>
      <point x="341.336" y="1318.8711741104423"/>
      <point x="382.136" y="1406.336"/>
      <point x="475.08799999999997" y="1406.336" type="curve" smooth="yes"/>
      <point x="572.16" y="1406.336"/>
      <point x="611.688" y="1298.4277122446422"/>
      <point x="611.688" y="1104.3680000000002" type="curve" smooth="yes"/>
      <point x="611.688" y="920.1411567944251"/>
      <point x="569.888" y="833.24"/>
    </contour>
    <contour>
      <point x="468.392" y="785.76" type="curve" smooth="yes"/>
      <point x="682.264" y="785.76"/>
      <point x="842.472" y="919.8308672566372"/>
      <point x="842.472" y="1124.576" type="curve" smooth="yes"/>
      <point x="842.472" y="1322.7513920972642"/>
      <point x="697.32" y="1454.24"/>
      <point x="483.632" y="1454.24" type="curve" smooth="yes"/>
      <point x="268.91200000000003" y="1454.24"/>
      <point x="110.552" y="1319.17592920354"/>
      <point x="110.552" y="1115.424" type="curve" smooth="yes"/>
      <point x="110.552" y="917.2486079027356"/>
      <point x="258.552" y="785.76"/>
    </contour>
  </outline>
</glyph>
<glyph name="oslash" format="2">
  <advance width="1198.104"/>
  <unicode hex="00F8"/>
  <anchor x="599.264" y="1024.0" name="top"/>
  <anchor x="599.264" y="0.0" name="bottom"/>
  <outline>
    <contour>
      <point x="62.56" y="0.0" type="line"/>
      <point x="163.552" y="0.0" type="line"/>
      <point x="281.728" y="125.936" type="line"/>
      <point x="337.136" y="158.112" type="line"/>
      <point x="903.144" y="801.4639999999999" type="line"/>
      <point x="958.9200000000001" y="834.736" type="line"/>
      <point x="1135.5439999999999" y="1024.0" type="line"/>
      <point x="1035.128" y="1024.0" type="line"/>
      <point x="917.5279999999999" y="898.064" type="line"/>
      <point x="856.36" y="858.4000000000001" type="line"/>
      <point x="289.776" y="215.624" type="line"/>
      <point x="240.33599999999998" y="190.416" type="line"/>
    </contour>
    <contour>
      <point x="598.384" y="34.6" type="curve" smooth="yes"/>
      <point x="445.69599999999997" y="34.6"/>
      <point x="383.00800000000004" y="202.60000000000002"/>
      <point x="383.00800000000004" y="529.96" type="curve" smooth="yes"/>
      <point x="383.00800000000004" y="844.872"/>
      <point x="449.392" y="988.976"/>
      <point x="599.296" y="988.976" type="curve" smooth="yes"/>
      <point x="751.9839999999999" y="988.976"/>
      <point x="814.672" y="821.4"/>
      <point x="814.672" y="494.04" type="curve" smooth="yes"/>
      <point x="814.672" y="178.704"/>
      <point x="748.288" y="34.6"/>
    </contour>
    <contour>
      <point x="589.6" y="-24.240000000000002" type="curve" smooth="yes"/>
      <point x="886.616" y="-24.240000000000002"/>
      <point x="1122.824" y="195.456"/>
      <point x="1122.824" y="513.968" type="curve" smooth="yes"/>
      <point x="1122.824" y="829.088"/>
      <point x="911.52" y="1048.24"/>
      <point x="608.0799999999999" y="1048.24" type="curve" smooth="yes"/>
      <point x="305.912" y="1048.24"/>
      <point x="75.28" y="827.544"/>
      <point x="75.28" y="510.032" type="curve" smooth="yes"/>
      <point x="75.28" y="195.488"/>
      <point x="292.16" y="-24.240000000000002"/>
    </contour>
  </outline>
</glyph>
<glyph name="aogonek" format="2">
  <advance width="1091.7759999999998"/>
  <unicode hex="0105"/>
  <outline>
    <contour>
      <point x="1104.48" y="104.824" type="line"/>
      <point x="1104.48" y="146.664" type="line"/>
      <point x="1065.384" y="123.41600000000001"/>
      <point x="1029.016" y="113.23200000000001"/>
      <point x="992.072" y="113.23200000000001" type="curve" smooth="yes"/>
      <point x="947.312" y="113.23200000000001"/>
      <point x="919.2479999999999" y="135.688"/>
      <point x="919.2479999999999" y="191.936" type="curve" smooth="yes"/>
      <point x="919.2479999999999" y="748.896" type="line" smooth="yes"/>
      <point x="919.2479999999999" y="931.216"/>
      <point x="823.92" y="1048.24"/>
      <point x="569.664" y="1048.24" type="curve" smooth="yes"/>
      <point x="335.968" y="1048.24"/>
      <point x="75.31200000000001" y="906.736"/>
      <point x="75.31200000000001" y="789.6479999999999" type="curve" smooth="yes"/>
      <point x="75.31200000000001" y="748.496"/>
      <point x="107.16" y="726.256"/>
      <point x="169.152" y="726.256" type="curve" smooth="yes"/>
      <point x="216.328" y="726.256"/>
      <point x="260.568" y="744.344"/>
      <point x="280.536" y="770.856" type="curve" smooth="yes"/>
      <point x="304.84000000000003" y="802.432"/>
      <point x="318.56800000000004" y="870.808"/>
      <point x="330.23199999999997" y="971.52" type="curve"/>
      <point x="286.56" y="937.456" type="line"/>
      <point x="321.44" y="950.52"/>
      <point x="380.44800000000004" y="957.5519999999999"/>
      <point x="442.632" y="957.5519999999999" type="curve" smooth="yes"/>
      <point x="567.336" y="957.5519999999999"/>
      <point x="627.552" y="890.64"/>
      <point x="627.552" y="773.568" type="curve" smooth="yes"/>
      <point x="627.552" y="304.392" type="line" smooth="yes"/>
      <point x="627.552" y="197.896"/>
      <point x="571.6" y="147.97600000000003"/>
      <point x="487.976" y="147.97600000000003" type="curve" smooth="yes"/>
      <point x="408.936" y="147.97600000000003"/>
      <point x="352.016" y="197.496"/>
      <point x="352.016" y="308.68" type="curve" smooth="yes"/>
      <point x="352.016" y="438.656"/>
      <point x="401.48" y="511.512"/>
      <point x="683.352" y="606.616" type="curve"/>
      <point x="680.832" y="654.552" type="line"/>
      <point x="146.376" y="487.57599999999996"/>
      <point x="66.03999999999999" y="408.76000000000005"/>
      <point x="66.03999999999999" y="239.696" type="curve" smooth="yes"/>
      <point x="66.03999999999999" y="75.088"/>
      <point x="178.59199999999998" y="-22.968000000000004"/>
      <point x="362.824" y="-22.968000000000004" type="curve" smooth="yes"/>
      <point x="497.91200000000003" y="-22.968000000000004"/>
      <point x="598.6400000000001" y="65.096"/>
      <point x="636.88" y="225.048" type="curve"/>
      <point x="627.096" y="231.408" type="line"/>
      <point x="632.096" y="58.60799999999999"/>
      <point x="680.664" y="-24.240000000000002"/>
      <point x="822.984" y="-24.240000000000002" type="curve" smooth="yes"/>
      <point x="900.912" y="-24.240000000000002"/>
      <point x="963.512" y="-9.728000000000002"/>
      <point x="1032.72" y="40.696" type="curve"/>
      <point x="1025.72" y="50.239999999999995" type="line"/>
      <point x="920.36" y="-60.248000000000005" type="line" smooth="yes"/>
      <point x="781.432" y="-200.456"/>
      <point x="756.584" y="-259.488"/>
      <point x="756.584" y="-323.88" type="curve" smooth="yes"/>
      <point x="756.584" y="-401.576"/>
      <point x="801.856" y="-465.0"/>
      <point x="909.488" y="-465.0" type="curve" smooth="yes"/>
      <point x="980.456" y="-465.0"/>
      <point x="1032.392" y="-437.30400000000003"/>
      <point x="1130.024" y="-324.28000000000003" type="curve"/>
      <point x="1117.328" y="-304.46400000000006" type="line"/>
      <point x="1060.664" y="-348.584"/>
      <point x="1025.24" y="-353.88800000000003"/>
      <point x="993.936" y="-353.88800000000003" type="curve" smooth="yes"/>
      <point x="931.5120000000001" y="-353.88800000000003"/>
      <point x="895.24" y="-314.976"/>
      <point x="895.24" y="-259.52" type="curve" smooth="yes"/>
      <point x="895.24" y="-209.912"/>
      <point x="909.3919999999999" y="-153.032"/>
      <point x="1005.872" y="-26.184000000000005" type="curve" smooth="yes"/>
    </contour>
  </outline>
</glyph>
<glyph name="eogonek" format="2">
  <advance width="1030.248"/>
  <unicode hex="0119"/>
  <outline>
    <contour>
      <point x="990.032" y="287.704" type="line"/>
      <point x="968.52" y="305.06399999999996" type="line"/>
      <point x="886.256" y="211.52"/>
      <point x="792.792" y="174.72799999999998"/>
      <point x="684.0640000000001" y="174.72799999999998" type="curve" smooth="yes"/>
      <point x="462.59999999999997" y="174.72799999999998"/>
      <point x="343.86400000000003" y="301.12800000000004"/>
      <point x="343.86400000000003" y="619.168" type="curve" smooth="yes"/>
      <point x="343.86400000000003" y="880.376"/>
      <point x="415.848" y="986.096"/>
      <point x="540.9599999999999" y="986.096" type="curve" smooth="yes"/>
      <point x="638.4879999999999" y="986.096"/>
      <point x="687.072" y="902.512"/>
      <point x="702.56" y="668.008" type="curve"/>
      <point x="833.136" y="714.3679999999999" type="line"/>
      <point x="298.096" y="714.3679999999999" type="line"/>
      <point x="298.096" y="642.376" type="line"/>
      <point x="970.2719999999999" y="642.376" type="line"/>
      <point x="951.0" y="901.4"/>
      <point x="812.3359999999999" y="1048.24"/>
      <point x="573.504" y="1048.24" type="curve" smooth="yes"/>
      <point x="243.368" y="1048.24"/>
      <point x="63.128" y="790.576"/>
      <point x="63.128" y="492.30400000000003" type="curve" smooth="yes"/>
      <point x="63.128" y="161.816"/>
      <point x="263.824" y="-24.240000000000002"/>
      <point x="548.992" y="-24.240000000000002" type="curve" smooth="yes"/>
      <point x="677.832" y="-24.240000000000002"/>
      <point x="781.0079999999999" y="17.392"/>
      <point x="880.184" y="130.712" type="curve"/>
      <point x="870.216" y="142.376" type="line"/>
      <point x="818.936" y="66.33600000000001" type="line" smooth="yes"/>
      <point x="692.912" y="-122.56"/>
      <point x="620.984" y="-215.192"/>
      <point x="620.984" y="-314.336" type="curve" smooth="yes"/>
      <point x="620.984" y="-405.88"/>
      <point x="683.952" y="-465.0"/>
      <point x="789.856" y="-465.0" type="curve" smooth="yes"/>
      <point x="866.0079999999999" y="-465.0"/>
      <point x="917.944" y="-437.30400000000003"/>
      <point x="1015.5759999999999" y="-324.28000000000003" type="curve"/>
      <point x="1002.88" y="-304.46400000000006" type="line"/>
      <point x="950.456" y="-345.616"/>
      <point x="916.728" y="-353.88800000000003"/>
      <point x="879.488" y="-353.88800000000003" type="curve" smooth="yes"/>
      <point x="803.608" y="-353.88800000000003"/>
      <point x="760.792" y="-312.40000000000003"/>
      <point x="760.792" y="-234.856" type="curve" smooth="yes"/>
      <point x="760.792" y="-164.12800000000001"/>
      <point x="792.912" y="-62.528000000000006"/>
      <point x="893.936" y="117.608" type="curve" smooth="yes"/>
    </contour>
  </outline>
</glyph>
<glyph name="kgreenlandic" format="2">
  <advance width="1235.1039999999998"/>
  <unicode hex="0138"/>
  <outline>
    <contour>
      <point x="473.70399999999995" y="484.376" type="line"/>
      <point x="825.6080000000001" y="56.967999999999996" type="line"/>
      <point x="719.136" y="29.544" type="line"/>
      <point x="719.136" y="0.0" type="line"/>
      <point x="1262.3120000000001" y="0.0" type="line"/>
      <point x="1262.3120000000001" y="29.544" type="line"/>
      <point x="1164.152" y="61.512" type="line"/>
      <point x="679.1199999999999" y="665.088" type="line"/>
      <point x="569.704" y="562.304" type="line"/>
      <point x="1036.376" y="954.6080000000001" type="line"/>
      <point x="1196.52" y="991.0" type="line"/>
      <point x="1196.52" y="1024.0" type="line"/>
      <point x="779.448" y="1024.0" type="line"/>
      <point x="779.448" y="991.0" type="line"/>
      <point x="933.232" y="956.184" type="line"/>
      <point x="480.464" y="541.8240000000001" type="line"/>
      <point x="395.664" y="541.8240000000001" type="line"/>
      <point x="395.664" y="484.376" type="line"/>
    </contour>
    <contour>
      <point x="460.34400000000005" y="1054.576" type="line"/>
      <point x="446.59200000000004" y="1054.576" type="line"/>
      <point x="38.792" y="943.648" type="line"/>
      <point x="38.792" y="919.288" type="line"/>
      <point x="99.792" y="863.6897907092907"/>
      <point x="146.648" y="826.0198131868132"/>
      <point x="168.648" y="805.9680000000001" type="curve"/>
      <point x="168.648" y="61.664" type="line"/>
      <point x="49.816" y="29.544" type="line"/>
      <point x="49.816" y="0.0" type="line"/>
      <point x="574.5120000000001" y="0.0" type="line"/>
      <point x="574.5120000000001" y="29.544" type="line"/>
      <point x="460.344" y="60.392" type="line"/>
      <point x="460.344" y="849.824" type="line"/>
    </contour>
  </outline>
</glyph>
<glyph name="Lslash" format="2">
  <advance width="1341.68"/>
  <unicode hex="0141"/>
  <outline>
    <contour>
      <point x="329.904" y="627.552" type="line"/>
      <point x="481.71999999999997" y="665.12" type="line"/>
      <point x="886.864" y="889.416" type="line"/>
      <point x="886.864" y="976.528" type="line"/>
      <point x="481.71999999999997" y="752.232" type="line"/>
      <point x="329.904" y="715.24" type="line"/>
      <point x="83.096" y="578.52" type="line"/>
      <point x="83.096" y="490.832" type="line"/>
    </contour>
    <contour>
      <point x="1210.136" y="-66.296" type="line"/>
      <point x="1326.312" y="436.128" type="line"/>
      <point x="1292.8319999999999" y="444.824" type="line"/>
      <point x="1020.336" y="43.056" type="line"/>
      <point x="1179.0" y="76.96000000000001" type="line"/>
      <point x="384.576" y="76.96000000000001" type="line"/>
      <point x="384.576" y="0.0" type="line"/>
      <point x="1051.664" y="0.0" type="line"/>
      <point x="1192.808" y="-66.296" type="line"/>
    </contour>
    <contour>
      <point x="580.8799999999999" y="1353.6399999999999" type="line"/>
      <point x="744.616" y="1396.76" type="line"/>
      <point x="744.616" y="1430.0" type="line"/>
      <point x="83.096" y="1430.0" type="line"/>
      <point x="83.096" y="1396.76" type="line"/>
      <point x="246.83200000000002" y="1353.6399999999999" type="line"/>
      <point x="246.83200000000002" y="77.36" type="line"/>
      <point x="83.096" y="32.816" type="line"/>
      <point x="83.096" y="0.0" type="line"/>
      <point x="580.8799999999999" y="0.0" type="line"/>
    </contour>
  </outline>
</glyph>
<glyph name="eng" format="2">
  <advance width="1229.4399999999998"/>
  <unicode hex="014B"/>
  <outline>
    <contour>
      <point x="460.344" y="829.048" type="line"/>
      <point x="460.344" y="1054.576" type="line"/>
      <point x="446.592" y="1054.576" type="line"/>
      <point x="38.792" y="943.648" type="line"/>
      <point x="38.792" y="919.288" type="line"/>
      <point x="109.016" y="863.8269090909091"/>
      <point x="146.224" y="827.0873846153846"/>
      <point x="168.648" y="805.968" type="curve"/>
      <point x="168.648" y="61.664" type="line"/>
      <point x="49.816" y="29.544" type="line"/>
      <point x="49.816" y="0.0" type="line"/>
      <point x="574.5120000000001" y="0.0" type="line"/>
      <point x="574.5120000000001" y="29.544" type="line"/>
      <point x="460.344" y="60.391999999999996" type="line"/>
    </contour>
    <contour>
      <point x="823.008" y="-37.608000000000004" type="line" smooth="yes"/>
      <point x="823.008" y="-225.056"/>
      <point x="815.616" y="-259.264"/>
      <point x="667.7520000000001" y="-439.216" type="curve"/>
      <point x="687.904" y="-460.76" type="line"/>
      <point x="1085.32" y="-162.00799999999998"/>
      <point x="1114.704" y="-112.864"/>
      <point x="1114.704" y="101.73599999999999" type="curve" smooth="yes"/>
      <point x="1114.704" y="733.96" type="line" smooth="yes"/>
      <point x="1114.704" y="941.032"/>
      <point x="1024.376" y="1044.0"/>
      <point x="835.584" y="1044.0" type="curve" smooth="yes"/>
      <point x="699.2" y="1044.0"/>
      <point x="627.256" y="1014.1199999999999"/>
      <point x="420.37600000000003" y="814.176" type="curve"/>
      <point x="427.86400000000003" y="794.872" type="line"/>
      <point x="492.408" y="825.72"/>
      <point x="569.392" y="850.696"/>
      <point x="648.528" y="850.696" type="curve" smooth="yes"/>
      <point x="768.152" y="850.696"/>
      <point x="823.008" y="799.656"/>
      <point x="823.008" y="682.192" type="curve" smooth="yes"/>
    </contour>
  </outline>
</glyph>
<glyph name="tbar" format="2">
  <advance width="829.184"/>
  <unicode hex="0167"/>
  <outline>
    <contour>
      <point x="39.184000000000005" y="523.488" type="line"/>
      <point x="738.4" y="523.488" type="line"/>
      <point x="738.4" y="595.12" type="line"/>
      <point x="39.184000000000005" y="595.12" type="line"/>
    </contour>
    <contour>
      <point x="461.12" y="291.25600000000003" type="curve" smooth="yes"/>
      <point x="461.12" y="993.5120000000001" type="line"/>
      <point x="461.12" y="1225.5520000000001" type="line"/>
      <point x="445.76" y="1225.5520000000001" type="line"/>
      <point x="281.02430868167204" y="1127.5520000000001"/>
      <point x="62.0214817245226" y="1002.792"/>
      <point x="25.04" y="980.792" type="curve"/>
      <point x="25.04" y="960.008" type="line"/>
      <point x="170.27200000000002" y="852.752" type="line"/>
      <point x="170.27200000000002" y="265.56" type="line" smooth="yes"/>
      <point x="170.27200000000002" y="63.024"/>
      <point x="283.784" y="-24.816"/>
      <point x="441.88" y="-24.816" type="curve" smooth="yes"/>
      <point x="550.808" y="-24.816"/>
      <point x="636.6719999999999" y="11.696"/>
      <point x="838.7840000000001" y="147.13600000000002" type="curve"/>
      <point x="838.7840000000001" y="186.16" type="line"/>
      <point x="748.544" y="161.43200000000002"/>
      <point x="686.0" y="153.70399999999998"/>
      <point x="625.88" y="153.70399999999998" type="curve" smooth="yes"/>
      <point x="519.64" y="153.70399999999998"/>
      <point x="461.12" y="199.04"/>
    </contour>
    <contour>
      <point x="352.05600000000004" y="885.048" type="line"/>
      <point x="786.728" y="885.048" type="line"/>
      <point x="805.696" y="1024.0" type="line"/>
      <point x="352.05600000000004" y="1024.0" type="line"/>
    </contour>
  </outline>
</glyph>
<glyph name="Uogonek" format="2">
  <advance width="1617.432"/>
  <unicode hex="0172"/>
  <outline>
    <contour>
      <point x="1351.968" y="576.96" type="line" smooth="yes"/>
      <point x="1351.968" y="266.656"/>
      <point x="1200.784" y="140.39999999999998"/>
      <point x="933.048" y="140.39999999999998" type="curve" smooth="yes"/>
      <point x="660.248" y="140.39999999999998"/>
      <point x="521.4559999999999" y="272.74399999999997"/>
      <point x="521.4559999999999" y="568.904" type="curve" smooth="yes"/>
      <point x="521.4559999999999" y="1353.6399999999999" type="line"/>
      <point x="685.192" y="1396.76" type="line"/>
      <point x="685.192" y="1430.0" type="line"/>
      <point x="23.672" y="1430.0" type="line"/>
      <point x="23.672" y="1396.76" type="line"/>
      <point x="187.40800000000002" y="1353.6399999999999" type="line"/>
      <point x="187.40800000000002" y="582.12" type="line" smooth="yes"/>
      <point x="187.40800000000002" y="177.368"/>
      <point x="409.552" y="-24.240000000000002"/>
      <point x="827.528" y="-24.240000000000002" type="curve" smooth="yes"/>
      <point x="1204.912" y="-24.240000000000002"/>
      <point x="1427.72" y="171.28"/>
      <point x="1427.72" y="560.808" type="curve" smooth="yes"/>
      <point x="1427.72" y="1353.0639999999999" type="line"/>
      <point x="1591.456" y="1396.76" type="line"/>
      <point x="1591.456" y="1430.0" type="line"/>
      <point x="1175.016" y="1430.0" type="line"/>
      <point x="1175.016" y="1396.76" type="line"/>
      <point x="1351.968" y="1353.0639999999999" type="line"/>
    </contour>
    <contour>
      <point x="941.904" y="-44.04" type="curve" smooth="yes"/>
      <point x="1039.936" y="84.904" type="line"/>
      <point x="1012.1199999999999" y="84.904" type="line"/>
      <point x="855.816" y="-74.104" type="line" smooth="yes"/>
      <point x="719.4319999999999" y="-207.008"/>
      <point x="692.04" y="-268.4"/>
      <point x="692.04" y="-329.064" type="curve" smooth="yes"/>
      <point x="692.04" y="-403.88"/>
      <point x="737.312" y="-465.0"/>
      <point x="844.9440000000001" y="-465.0" type="curve" smooth="yes"/>
      <point x="915.9119999999999" y="-465.0"/>
      <point x="967.848" y="-437.30400000000003"/>
      <point x="1065.48" y="-324.28000000000003" type="curve"/>
      <point x="1052.7839999999999" y="-304.46400000000006" type="line"/>
      <point x="996.12" y="-348.584"/>
      <point x="960.696" y="-353.88800000000003"/>
      <point x="929.3919999999999" y="-353.88800000000003" type="curve" smooth="yes"/>
      <point x="866.968" y="-353.88800000000003"/>
      <point x="830.6959999999999" y="-320.16"/>
      <point x="830.6959999999999" y="-267.00800000000004" type="curve" smooth="yes"/>
      <point x="830.6959999999999" y="-219.70399999999998"/>
      <point x="846.696" y="-166.976"/>
    </contour>
  </outline>
</glyph>
<glyph name="uni018F" format="2">
  <advance width="1496.808"/>
  <unicode hex="018F"/>
  <outline>
    <contour>
      <point x="253.952" y="480.368" type="line"/>
      <point x="1180.992" y="480.368" type="line"/>
      <point x="1180.992" y="557.328" type="line"/>
      <point x="80.192" y="557.328" type="line"/>
      <point x="104.00800000000001" y="207.36800000000002"/>
      <point x="294.792" y="-23.392000000000003"/>
      <point x="693.2959999999999" y="-23.816000000000003" type="curve" smooth="yes"/>
      <point x="1139.32" y="-25.240000000000002"/>
      <point x="1413.952" y="331.848"/>
      <point x="1413.952" y="736.5120000000001" type="curve" smooth="yes"/>
      <point x="1413.952" y="1197.488"/>
      <point x="1161.136" y="1454.24"/>
      <point x="733.776" y="1454.24" type="curve" smooth="yes"/>
      <point x="472.752" y="1454.24"/>
      <point x="260.128" y="1343.272"/>
      <point x="50.824" y="1035.288" type="curve"/>
      <point x="80.45599999999999" y="1009.352" type="line"/>
      <point x="257.67199999999997" y="1175.968"/>
      <point x="412.67199999999997" y="1239.0400000000002"/>
      <point x="615.144" y="1239.0400000000002" type="curve" smooth="yes"/>
      <point x="950.2080000000001" y="1239.0400000000002"/>
      <point x="1139.096" y="1036.904"/>
      <point x="1139.096" y="599.328" type="curve" smooth="yes"/>
      <point x="1139.096" y="224.59199999999998"/>
      <point x="980.504" y="41.296"/>
      <point x="724.472" y="41.296" type="curve" smooth="yes"/>
      <point x="519.1519999999999" y="41.296"/>
      <point x="401.984" y="204.0"/>
      <point x="381.10400000000004" y="537.664" type="curve"/>
    </contour>
  </outline>
</glyph>
<glyph name="Ohorn" format="2">
  <advance width="1626.376"/>
  <unicode hex="01A0"/>
  <anchor x="817.808" y="1430.0" name="UCtop"/>
  <anchor x="817.808" y="0.0" name="bottom"/>
  <outline>
    <contour>
      <point x="830.048" y="40.29600000000001" type="curve" smooth="yes"/>
      <point x="578.992" y="40.29600000000001"/>
      <point x="418.904" y="301.44800000000004"/>
      <point x="418.904" y="771.168" type="curve" smooth="yes"/>
      <point x="418.904" y="1190.5520000000001"/>
      <point x="572.528" y="1390.28"/>
      <point x="804.5680000000001" y="1390.28" type="curve" smooth="yes"/>
      <point x="1054.472" y="1390.28"/>
      <point x="1215.136" y="1128.5520000000001"/>
      <point x="1215.136" y="658.832" type="curve" smooth="yes"/>
      <point x="1215.136" y="240.02399999999997"/>
      <point x="1061.512" y="40.29600000000001"/>
    </contour>
    <contour>
      <point x="829.952" y="1454.24" type="curve" smooth="yes"/>
      <point x="395.36" y="1454.24"/>
      <point x="80.432" y="1141.8799999999999"/>
      <point x="80.432" y="702.976" type="curve" smooth="yes"/>
      <point x="80.432" y="272.824"/>
      <point x="385.33599999999996" y="-24.240000000000002"/>
      <point x="805.816" y="-24.240000000000002" type="curve" smooth="yes"/>
      <point x="1239.2559999999999" y="-24.240000000000002"/>
      <point x="1554.184" y="288.12"/>
      <point x="1554.184" y="728.176" type="curve" smooth="yes"/>
      <point x="1554.184" y="1012.456"/>
      <point x="1419.936" y="1255.824"/>
      <point x="1171.2079999999999" y="1377.912" type="curve"/>
      <point x="1171.2079999999999" y="1365.488" type="line"/>
      <point x="1410.272" y="1353.968"/>
      <point x="1524.248" y="1461.544"/>
      <point x="1524.248" y="1614.304" type="curve" smooth="yes"/>
      <point x="1524.248" y="1704.752"/>
      <point x="1480.736" y="1754.992"/>
      <point x="1405.256" y="1754.992" type="curve" smooth="yes"/>
      <point x="1342.8960000000002" y="1754.992"/>
      <point x="1298.872" y="1714.7520000000002"/>
      <point x="1298.872" y="1673.576" type="curve" smooth="yes"/>
      <point x="1298.872" y="1658.6080000000002"/>
      <point x="1351.112" y="1615.7279999999998"/>
      <point x="1351.112" y="1546.8799999999999" type="curve" smooth="yes"/>
      <point x="1351.112" y="1475.0"/>
      <point x="1297.2640000000001" y="1421.36"/>
      <point x="1166.288" y="1421.36" type="curve" smooth="yes"/>
      <point x="1053.624" y="1421.36"/>
      <point x="979.832" y="1454.24"/>
    </contour>
  </outline>
</glyph>
<glyph name="uni01EA" format="2">
  <advance width="1634.616"/>
  <unicode hex="01EA"/>
  <outline>
    <contour>
      <point x="829.952" y="1454.24" type="curve" smooth="yes"/>
      <point x="395.36" y="1454.24"/>
      <point x="80.432" y="1141.8799999999999"/>
      <point x="80.432" y="702.976" type="curve" smooth="yes"/>
      <point x="80.432" y="272.824"/>
      <point x="385.33599999999996" y="-24.240000000000002"/>
      <point x="805.816" y="-24.240000000000002" type="curve" smooth="yes"/>
      <point x="1239.2559999999999" y="-24.240000000000002"/>
      <point x="1554.184" y="288.12"/>
      <point x="1554.184" y="728.176" type="curve" smooth="yes"/>
      <point x="1554.184" y="1157.176"/>
      <point x="1249.28" y="1454.24"/>
    </contour>
    <contour>
      <point x="830.048" y="40.29600000000001" type="curve" smooth="yes"/>
      <point x="578.992" y="40.29600000000001"/>
      <point x="418.904" y="301.44800000000004"/>
      <point x="418.904" y="771.168" type="curve" smooth="yes"/>
      <point x="418.904" y="1190.5520000000001"/>
      <point x="572.528" y="1390.28"/>
      <point x="804.5680000000001" y="1390.28" type="curve" smooth="yes"/>
      <point x="1054.472" y="1390.28"/>
      <point x="1215.136" y="1128.5520000000001"/>
      <point x="1215.136" y="658.832" type="curve" smooth="yes"/>
      <point x="1215.136" y="240.02399999999997"/>
      <point x="1061.512" y="40.29600000000001"/>
    </contour>
    <contour>
      <point x="853.224" y="-43.616" type="curve" smooth="yes"/>
      <point x="875.952" y="8.48" type="line"/>
      <point x="833.624" y="8.48" type="line"/>
      <point x="779.168" y="-74.104" type="line" smooth="yes"/>
      <point x="677.48" y="-222.376"/>
      <point x="654.424" y="-273.584"/>
      <point x="654.424" y="-329.064" type="curve" smooth="yes"/>
      <point x="654.424" y="-403.88"/>
      <point x="702.576" y="-465.0"/>
      <point x="810.208" y="-465.0" type="curve" smooth="yes"/>
      <point x="881.176" y="-465.0"/>
      <point x="933.112" y="-437.30400000000003"/>
      <point x="1030.744" y="-324.28000000000003" type="curve"/>
      <point x="1018.048" y="-304.46400000000006" type="line"/>
      <point x="961.384" y="-348.584"/>
      <point x="925.96" y="-353.88800000000003"/>
      <point x="894.6560000000001" y="-353.88800000000003" type="curve" smooth="yes"/>
      <point x="832.232" y="-353.88800000000003"/>
      <point x="790.2" y="-320.16"/>
      <point x="790.2" y="-262.976" type="curve" smooth="yes"/>
      <point x="790.2" y="-219.70399999999998"/>
      <point x="795.472" y="-170.552"/>
    </contour>
  </outline>
</glyph>
<glyph name="uni0237" format="2">
  <advance width="578.928"/>
  <unicode hex="0237"/>
  <anchor x="278.91200000000003" y="1024.0" name="top"/>
  <anchor x="288.91200000000003" y="-440.76" name="bottom"/>
  <outline>
    <contour>
      <point x="159.768" y="805.9680000000001" type="curve"/>
      <point x="159.768" y="-37.608000000000004" type="line" smooth="yes"/>
      <point x="159.768" y="-225.056"/>
      <point x="152.376" y="-259.264"/>
      <point x="4.5120000000000005" y="-439.216" type="curve"/>
      <point x="24.664" y="-460.76" type="line"/>
      <point x="422.08" y="-162.00799999999998"/>
      <point x="451.464" y="-112.864"/>
      <point x="451.464" y="101.73599999999999" type="curve" smooth="yes"/>
      <point x="451.464" y="849.824" type="line"/>
      <point x="451.464" y="1054.576" type="line"/>
      <point x="437.712" y="1054.576" type="line"/>
      <point x="29.912000000000003" y="943.648" type="line"/>
      <point x="29.912000000000003" y="919.288" type="line"/>
      <point x="90.912" y="863.6897907092907"/>
      <point x="137.76799999999997" y="826.0198131868132"/>
    </contour>
  </outline>
</glyph>
<glyph name="tildecomb" format="2">
  <unicode hex="0303"/>
  <anchor x="0.0" y="1024.0" name="_top"/>
  <anchor x="0.0" y="1376.0" name="top"/>
  <outline>
    <contour>
      <point x="310.752" y="1446.544" type="curve"/>
      <point x="262.12" y="1446.544" type="line"/>
      <point x="229.24" y="1324.5040000000001"/>
      <point x="200.208" y="1293.0159999999998"/>
      <point x="142.36" y="1293.0159999999998" type="curve" smooth="yes"/>
      <point x="54.088" y="1293.0159999999998"/>
      <point x="-16.727999999999998" y="1456.544"/>
      <point x="-123.456" y="1456.544" type="curve" smooth="yes"/>
      <point x="-211.24" y="1456.544"/>
      <point x="-270.816" y="1407.7279999999998"/>
      <point x="-318.24" y="1155.456" type="curve"/>
      <point x="-269.608" y="1155.456" type="line"/>
      <point x="-236.728" y="1277.4959999999999"/>
      <point x="-208.27200000000002" y="1308.9840000000002"/>
      <point x="-149.848" y="1308.9840000000002" type="curve" smooth="yes"/>
      <point x="-61.576" y="1308.9840000000002"/>
      <point x="9.24" y="1145.456"/>
      <point x="117.696" y="1145.456" type="curve" smooth="yes"/>
      <point x="203.752" y="1145.456"/>
      <point x="263.328" y="1194.2720000000002"/>
    </contour>
  </outline>
</glyph>
<glyph name="uni0324" format="2">
  <unicode hex="0324"/>
  <anchor x="0.0" y="0.0" name="_bottom"/>
  <anchor x="0.0" y="-465.0" name="bottom"/>
  <outline>
    <contour>
      <point x="-201.576" y="-335.688" type="curve" smooth="yes"/>
      <point x="-129.248" y="-335.688"/>
      <point x="-81.03999999999999" y="-282.328"/>
      <point x="-81.03999999999999" y="-218.0" type="curve" smooth="yes"/>
      <point x="-81.03999999999999" y="-152.67200000000003"/>
      <point x="-129.248" y="-99.31200000000001"/>
      <point x="-201.576" y="-99.31200000000001" type="curve" smooth="yes"/>
      <point x="-273.48" y="-99.31200000000001"/>
      <point x="-322.11199999999997" y="-152.67200000000003"/>
      <point x="-322.11199999999997" y="-218.0" type="curve" smooth="yes"/>
      <point x="-322.11199999999997" y="-282.328"/>
      <point x="-273.48" y="-335.688"/>
    </contour>
    <contour>
      <point x="201.576" y="-335.688" type="curve" smooth="yes"/>
      <point x="273.904" y="-335.688"/>
      <point x="322.11199999999997" y="-282.328"/>
      <point x="322.11199999999997" y="-218.0" type="curve" smooth="yes"/>
      <point x="322.11199999999997" y="-152.67200000000003"/>
      <point x="273.904" y="-99.31200000000001"/>
      <point x="201.576" y="-99.31200000000001" type="curve" smooth="yes"/>
      <point x="129.672" y="-99.31200000000001"/>
      <point x="81.03999999999999" y="-152.67200000000003"/>
      <point x="81.03999999999999" y="-218.0" type="curve" smooth="yes"/>
      <point x="81.03999999999999" y="-282.328"/>
      <point x="129.672" y="-335.688"/>
    </contour>
  </outline>
</glyph>
<glyph name="quoteright" format="2">
  <advance width="499.496"/>
  <unicode hex="2019"/>
  <outline>
    <contour>
      <point x="78.096" y="917.448" type="curve"/>
      <point x="98.52" y="880.664" type="line"/>
      <point x="341.31199999999995" y="979.6"/>
      <point x="443.096" y="1110.112"/>
      <point x="443.096" y="1260.2240000000002" type="curve" smooth="yes"/>
      <point x="443.096" y="1383.488"/>
      <point x="371.496" y="1450.5439999999999"/>
      <point x="270.384" y="1450.5439999999999" type="curve" smooth="yes"/>
      <point x="175.728" y="1450.5439999999999"/>
      <point x="109.584" y="1382.5520000000001"/>
      <point x="109.584" y="1292.5919999999999" type="curve" smooth="yes"/>
      <point x="109.584" y="1273.32"/>
      <point x="268.512" y="1241.0800000000002"/>
      <point x="268.512" y="1133.36" type="curve" smooth="yes"/>
      <point x="268.512" y="1048.36"/>
      <point x="217.664" y="980.904"/>
    </contour>
  </outline>
</glyph>
<glyph name="quotesinglbase" format="2">
  <advance width="492.072"/>
  <unicode hex="201A"/>
  <outline>
    <contour>
      <point x="43.672" y="-249.672" type="curve"/>
      <point x="64.096" y="-286.45599999999996" type="line"/>
      <point x="306.88800000000003" y="-187.52"/>
      <point x="408.672" y="-57.007999999999996"/>
      <point x="408.672" y="93.10399999999998" type="curve" smooth="yes"/>
      <point x="408.672" y="216.368"/>
      <point x="337.072" y="283.424"/>
      <point x="235.96" y="283.424" type="curve" smooth="yes"/>
      <point x="141.304" y="283.424"/>
      <point x="75.16000000000001" y="215.432"/>
      <point x="75.16000000000001" y="125.472" type="curve" smooth="yes"/>
      <point x="75.16000000000001" y="106.2"/>
      <point x="234.088" y="73.96"/>
      <point x="234.088" y="-33.760000000000005" type="curve" smooth="yes"/>
      <point x="234.088" y="-118.76"/>
      <point x="183.23999999999998" y="-186.216"/>
    </contour>
  </outline>
</glyph>
<glyph name="daggerdbl" format="2">
  <advance width="789.52"/>
  <unicode hex="2021"/>
  <outline>
    <contour>
      <point x="392.33599999999996" y="1216.9360000000001" type="line"/>
      <point x="114.76" y="1278.232" type="line"/>
      <point x="114.76" y="1106.28" type="line"/>
      <point x="392.33599999999996" y="1168.576" type="line"/>
      <point x="674.76" y="1106.28" type="line"/>
      <point x="674.76" y="1278.232" type="line"/>
    </contour>
    <contour>
      <point x="464.24" y="1046.0" type="line"/>
      <point x="416.30400000000003" y="1192.9679999999998" type="line"/>
      <point x="482.296" y="1464.0" type="line"/>
      <point x="302.37600000000003" y="1464.0" type="line"/>
      <point x="367.52" y="1192.9679999999998" type="line"/>
      <point x="321.00800000000004" y="1046.0" type="line"/>
      <point x="367.52" y="898.0319999999999" type="line"/>
      <point x="302.37600000000003" y="627.0" type="line"/>
      <point x="482.296" y="627.0" type="line"/>
      <point x="416.30400000000003" y="898.0319999999999" type="line"/>
    </contour>
    <contour>
      <point x="392.33599999999996" y="874.064" type="line"/>
      <point x="674.76" y="812.768" type="line"/>
      <point x="674.76" y="984.72" type="line"/>
      <point x="392.33599999999996" y="922.424" type="line"/>
      <point x="114.76" y="984.72" type="line"/>
      <point x="114.76" y="812.768" type="line"/>
    </contour>
  </outline>
</glyph>
<glyph name="bullet" format="2">
  <advance width="798.96"/>
  <unicode hex="2022"/>
  <outline>
    <contour>
      <point x="399.48" y="758.048" type="curve" smooth="yes"/>
      <point x="259.336" y="758.048"/>
      <point x="158.16" y="652.2959999999999"/>
      <point x="158.16" y="522.0" type="curve" smooth="yes"/>
      <point x="158.16" y="391.704"/>
      <point x="259.336" y="285.952"/>
      <point x="399.48" y="285.952" type="curve" smooth="yes"/>
      <point x="539.6239999999999" y="285.952"/>
      <point x="640.8000000000001" y="391.704"/>
      <point x="640.8000000000001" y="522.0" type="curve" smooth="yes"/>
      <point x="640.8000000000001" y="652.2959999999999"/>
      <point x="539.6239999999999" y="758.048"/>
    </contour>
  </outline>
</glyph>
<glyph name="minute" format="2">
  <advance width="397.288"/>
  <unicode hex="2032"/>
  <outline>
    <contour>
      <point x="106.79199999999999" y="935.56" type="line"/>
      <point x="159.512" y="935.56" type="line"/>
      <point x="371.52000000000004" y="1412.608" type="line"/>
      <point x="371.52000000000004" y="1430.0" type="line"/>
      <point x="120.128" y="1430.0" type="line"/>
    </contour>
  </outline>
</glyph>
<glyph name="guilsinglright" format="2">
  <advance width="609.328"/>
  <unicode hex="203A"/>
  <outline>
    <contour>
      <point x="340.984" y="433.15999999999997" type="line"/>
      <point x="340.984" y="612.264" type="line"/>
      <point x="91.608" y="95.976" type="line"/>
      <point x="110.72800000000001" y="81.128" type="line"/>
      <point x="531.264" y="514.1519999999999" type="line"/>
      <point x="531.264" y="531.272" type="line"/>
      <point x="110.72800000000001" y="964.296" type="line"/>
      <point x="91.608" y="949.448" type="line"/>
    </contour>
  </outline>
</glyph>
<glyph name="fraction" format="2">
  <advance width="160.0"/>
  <unicode hex="2044"/>
  <outline>
    <contour>
      <point x="-455.93600000000004" y="0.0" type="line"/>
      <point x="-373.064" y="0.0" type="line"/>
      <point x="620.936" y="1430.0" type="line"/>
      <point x="538.064" y="1430.0" type="line"/>
    </contour>
  </outline>
</glyph>
<glyph name="greaterequal" format="2">
  <advance width="1150.0"/>
  <unicode hex="2265"/>
  <outline>
    <contour>
      <point x="996.0" y="78.72" type="line"/>
      <point x="160.0" y="78.72" type="line"/>
      <point x="160.0" y="0.0" type="line"/>
      <point x="996.0" y="0.0" type="line"/>
    </contour>
    <contour>
      <point x="996.0" y="601.336" type="line"/>
      <point x="996.0" y="676.664" type="line"/>
      <point x="160.0" y="1036.0" type="line"/>
      <point x="160.0" y="950.704" type="line"/>
      <point x="923.312" y="631.424" type="line"/>
      <point x="923.312" y="652.576" type="line"/>
      <point x="160.0" y="327.296" type="line"/>
      <point x="160.0" y="242.0" type="line"/>
    </contour>
  </outline>
</glyph>
<glyph name="uni27E8" format="2">
  <advance width="1150.0"/>
  <unicode hex="27E8"/>
  <outline>
    <contour>
      <point x="310.20799999999997" y="692.0" type="line"/>
      <point x="904.208" y="1430.0" type="line"/>
      <point x="808.792" y="1430.0" type="line"/>
      <point x="234.792" y="720.0" type="line"/>
      <point x="234.792" y="708.0" type="line"/>
      <point x="808.792" y="0.0" type="line"/>
      <point x="904.208" y="0.0" type="line"/>
      <point x="308.208" y="740.0" type="line"/>
    </contour>
  </outline>
</glyph>
<glyph name="f_f_l" format="2">
  <advance width="1887.896"/>
  <unicode hex="FB04"/>
  <outline>
    <contour>
      <point x="1106.7040000000002" y="61.664" type="line"/>
      <point x="1106.7040000000002" y="1212.464" type="line" smooth="yes"/>
      <point x="1106.7040000000002" y="1338.328"/>
      <point x="1149.888" y="1399.76"/>
      <point x="1246.1680000000001" y="1399.76" type="curve" smooth="yes"/>
      <point x="1326.1999999999998" y="1399.76"/>
      <point x="1402.504" y="1352.064"/>
      <point x="1441.096" y="1287.816" type="curve" smooth="yes"/>
      <point x="1441.096" y="61.664" type="line"/>
      <point x="1322.264" y="29.544" type="line"/>
      <point x="1322.264" y="0.0" type="line"/>
      <point x="1851.6239999999998" y="0.0" type="line"/>
      <point x="1851.6239999999998" y="29.544" type="line"/>
      <point x="1732.792" y="61.664" type="line"/>
      <point x="1732.792" y="1311.272" type="line"/>
      <point x="1732.792" y="1488.24" type="line"/>
      <point x="1719.04" y="1488.24" type="line"/>
      <point x="1547.52" y="1438.816" type="line"/>
      <point x="1597.856" y="1433.816" type="line"/>
      <point x="1524.376" y="1466.2399999999998"/>
      <point x="1459.9279999999999" y="1478.24"/>
      <point x="1374.5439999999999" y="1478.24" type="curve" smooth="yes"/>
      <point x="1032.304" y="1478.24"/>
      <point x="811.5519999999999" y="1283.52"/>
      <point x="811.5519999999999" y="982.7760000000001" type="curve" smooth="yes"/>
      <point x="811.5519999999999" y="61.664" type="line"/>
      <point x="692.7199999999999" y="29.544" type="line"/>
      <point x="692.7199999999999" y="0.0" type="line"/>
      <point x="1225.5359999999998" y="0.0" type="line"/>
      <point x="1225.5359999999998" y="29.544" type="line"/>
    </contour>
    <contour>
      <point x="609.984" y="0.0" type="line"/>
      <point x="609.984" y="29.544" type="line"/>
      <point x="482.67199999999997" y="61.664" type="line"/>
      <point x="482.67199999999997" y="1183.6480000000001" type="line" smooth="yes"/>
      <point x="482.67199999999997" y="1311.84"/>
      <point x="540.016" y="1378.3999999999999"/>
      <point x="648.816" y="1378.3999999999999" type="curve" smooth="yes"/>
      <point x="747.752" y="1378.3999999999999"/>
      <point x="814.784" y="1324.2640000000001"/>
      <point x="886.6479999999999" y="1222.104" type="curve"/>
      <point x="1031.472" y="1363.608" type="line"/>
      <point x="958.32" y="1420.9119999999998"/>
      <point x="862.168" y="1453.664"/>
      <point x="714.616" y="1453.664" type="curve" smooth="yes"/>
      <point x="403.944" y="1453.664"/>
      <point x="187.52" y="1250.3039999999999"/>
      <point x="187.52" y="952.44" type="curve" smooth="yes"/>
      <point x="187.52" y="61.664" type="line"/>
      <point x="68.688" y="29.544" type="line"/>
      <point x="68.688" y="0.0" type="line"/>
    </contour>
    <contour>
      <point x="1356.0" y="1024.0" type="line"/>
      <point x="329.816" y="1024.0" type="line"/>
      <point x="216.79199999999997" y="1040.448" type="line"/>
      <point x="22.520000000000003" y="967.336" type="line"/>
      <point x="22.520000000000003" y="936.184" type="line"/>
      <point x="203.52" y="862.5680000000001" type="line"/>
      <point x="240.70399999999998" y="885.048" type="line"/>
      <point x="1334.064" y="885.048" type="line"/>
    </contour>
  </outline>
</glyph>
<glyph name="Euro.lf" format="2">
  <advance width="1471.7920000000001"/>
  <outline>
    <contour>
      <point x="1061.528" y="593.512" type="line"/>
      <point x="90.216" y="593.512" type="line"/>
      <point x="90.216" y="530.336" type="line"/>
      <point x="1061.528" y="530.336" type="line"/>
    </contour>
    <contour>
      <point x="1061.528" y="911.5120000000001" type="line"/>
      <point x="90.216" y="911.5120000000001" type="line"/>
      <point x="90.216" y="847.336" type="line"/>
      <point x="1061.528" y="847.336" type="line"/>
    </contour>
    <contour>
      <point x="945.784" y="1392.584" type="curve" smooth="yes"/>
      <point x="1103.944" y="1392.584"/>
      <point x="1223.768" y="1156.904"/>
      <point x="1275.192" y="1156.904" type="curve" smooth="yes"/>
      <point x="1345.856" y="1156.904"/>
      <point x="1389.032" y="1201.776"/>
      <point x="1389.032" y="1264.04" type="curve" smooth="yes"/>
      <point x="1389.032" y="1383.52"/>
      <point x="1233.624" y="1454.24"/>
      <point x="990.072" y="1454.24" type="curve" smooth="yes"/>
      <point x="538.0400000000001" y="1454.24"/>
      <point x="284.22400000000005" y="1126.312"/>
      <point x="284.22400000000005" y="692.4000000000001" type="curve" smooth="yes"/>
      <point x="284.22400000000005" y="234.488"/>
      <point x="518.856" y="-24.240000000000002"/>
      <point x="951.3520000000001" y="-24.240000000000002" type="curve" smooth="yes"/>
      <point x="1214.344" y="-24.240000000000002"/>
      <point x="1365.912" y="49.992000000000004"/>
      <point x="1365.912" y="154.448" type="curve" smooth="yes"/>
      <point x="1365.912" y="212.168"/>
      <point x="1325.008" y="247.56"/>
      <point x="1262.856" y="247.56" type="curve" smooth="yes"/>
      <point x="1203.104" y="247.56"/>
      <point x="1080.816" y="39.36"/>
      <point x="937.56" y="38.784" type="curve" smooth="yes"/>
      <point x="758.3199999999999" y="38.208"/>
      <point x="605.4639999999999" y="213.984"/>
      <point x="605.4639999999999" y="781.0799999999999" type="curve" smooth="yes"/>
      <point x="605.4639999999999" y="1210.992"/>
      <point x="734.064" y="1392.584"/>
    </contour>
  </outline>
</glyph>
<glyph name="cent.lf" format="2">
  <advance width="1087.6"/>
  <outline>
    <contour>
      <point x="341.312" y="0.0" type="line"/>
      <point x="401.368" y="0.0" type="line"/>
      <point x="886.3679999999999" y="1430.0" type="line"/>
      <point x="825.312" y="1430.0" type="line"/>
    </contour>
    <contour>
      <point x="664.136" y="1248.24" type="curve" smooth="yes"/>
      <point x="349.992" y="1248.24"/>
      <point x="106.21600000000001" y="1013.0"/>
      <point x="106.21600000000001" y="693.152" type="curve" smooth="yes"/>
      <point x="106.21600000000001" y="362.24"/>
      <point x="302.88" y="175.76"/>
      <point x="582.2879999999999" y="175.76" type="curve" smooth="yes"/>
      <point x="755.096" y="175.76"/>
      <point x="879.576" y="252.24"/>
      <point x="1010.448" y="483.464" type="curve"/>
      <point x="989.512" y="500.82399999999996" type="line"/>
      <point x="908.8240000000001" y="409.40000000000003"/>
      <point x="820.208" y="374.72799999999995"/>
      <point x="710.816" y="374.72799999999995" type="curve" smooth="yes"/>
      <point x="501.32" y="374.72799999999995"/>
      <point x="386.952" y="503.248"/>
      <point x="386.952" y="837.824" type="curve" smooth="yes"/>
      <point x="386.952" y="1090.472"/>
      <point x="466.05600000000004" y="1186.3359999999998"/>
      <point x="581.104" y="1186.3359999999998" type="curve" smooth="yes"/>
      <point x="706.832" y="1186.3359999999998"/>
      <point x="836.304" y="962.808"/>
      <point x="868.8159999999999" y="962.808" type="curve" smooth="yes"/>
      <point x="933.936" y="962.808"/>
      <point x="987.776" y="1008.44"/>
      <point x="987.776" y="1079.496" type="curve" smooth="yes"/>
      <point x="987.776" y="1163.008"/>
      <point x="898.112" y="1248.24"/>
    </contour>
  </outline>
</glyph>
<glyph name="colonmonetary.lf.1" format="2">
  <advance width="1222.976"/>
  <outline>
    <contour>
      <point x="693.288" y="1390.856" type="curve" smooth="yes"/>
      <point x="863.936" y="1390.856"/>
      <point x="960.584" y="1168.592"/>
      <point x="1007.344" y="1168.592" type="curve" smooth="yes"/>
      <point x="1081.096" y="1168.592"/>
      <point x="1125.88" y="1213.256"/>
      <point x="1125.88" y="1277.4" type="curve" smooth="yes"/>
      <point x="1125.88" y="1372.0"/>
      <point x="1008.7280000000001" y="1454.24"/>
      <point x="756.28" y="1454.24" type="curve" smooth="yes"/>
      <point x="373.64799999999997" y="1454.24"/>
      <point x="105.216" y="1125.816"/>
      <point x="105.216" y="676.48" type="curve" smooth="yes"/>
      <point x="105.216" y="229.30132561505067"/>
      <point x="330.912" y="-24.240000000000002"/>
      <point x="652.472" y="-24.240000000000002" type="curve" smooth="yes"/>
      <point x="852.16" y="-24.240000000000002"/>
      <point x="988.1616389374143" y="49.40269714653505"/>
      <point x="1155.032" y="331.568" type="curve"/>
      <point x="1128.2479999999998" y="352.384" type="line"/>
      <point x="1021.5296950555411" y="258.809695055541"/>
      <point x="929.824" y="221.864"/>
      <point x="770.328" y="221.864" type="curve" smooth="yes"/>
      <point x="533.144" y="221.864"/>
      <point x="375.34399999999994" y="398.70718446601944"/>
      <point x="375.34399999999994" y="819.904" type="curve" smooth="yes"/>
      <point x="375.34399999999994" y="1226.128"/>
      <point x="501.808" y="1390.856"/>
    </contour>
    <contour>
      <point x="778.672" y="1409.52" type="line"/>
      <point x="829.3679999999999" y="1638.0" type="line"/>
      <point x="765.888" y="1638.0" type="line"/>
      <point x="715.192" y="1409.52" type="line"/>
    </contour>
    <contour>
      <point x="428.672" y="120.10400000000001" type="line"/>
      <point x="355.888" y="-208.0" type="line"/>
      <point x="419.368" y="-208.0" type="line"/>
      <point x="492.152" y="120.10400000000001" type="line"/>
    </contour>
    <contour>
      <point x="962.096" y="1392.816" type="line"/>
      <point x="1016.248" y="1638.0" type="line"/>
      <point x="952.768" y="1638.0" type="line"/>
      <point x="898.6160000000001" y="1392.816" type="line"/>
    </contour>
    <contour>
      <point x="615.552" y="120.104" type="line"/>
      <point x="542.7679999999999" y="-208.0" type="line"/>
      <point x="607.248" y="-208.0" type="line"/>
      <point x="680.0319999999999" y="120.104" type="line"/>
    </contour>
  </outline>
</glyph>
<glyph name="dollar.lf" format="2">
  <advance width="1163.3919999999998"/>
  <outline>
    <contour>
      <point x="476.11199999999997" y="-208.0" type="line"/>
      <point x="537.592" y="-208.0" type="line"/>
      <point x="537.592" y="1638.0" type="line"/>
      <point x="476.11199999999997" y="1638.0" type="line"/>
    </contour>
    <contour>
      <point x="664.112" y="-208.0" type="line"/>
      <point x="725.592" y="-208.0" type="line"/>
      <point x="725.592" y="1638.0" type="line"/>
      <point x="664.112" y="1638.0" type="line"/>
    </contour>
    <contour>
      <point x="483.384" y="-24.240000000000002" type="curve" smooth="yes"/>
      <point x="841.2719999999999" y="-24.240000000000002"/>
      <point x="1074.3919999999998" y="165.7833846153846"/>
      <point x="1074.3919999999998" y="462.104" type="curve" smooth="yes"/>
      <point x="1074.3919999999998" y="673.32"/>
      <point x="961.6959999999999" y="810.584"/>
      <point x="642.64" y="894.312" type="curve" smooth="yes"/>
      <point x="346.904" y="972.1039999999999"/>
      <point x="296.24" y="1045.984"/>
      <point x="296.24" y="1159.896" type="curve" smooth="yes"/>
      <point x="296.24" y="1300.9388235294116"/>
      <point x="390.248" y="1394.976"/>
      <point x="584.9839999999999" y="1394.976" type="curve" smooth="yes"/>
      <point x="753.904" y="1394.976"/>
      <point x="868.4319999999999" y="1170.32"/>
      <point x="912.312" y="1170.32" type="curve" smooth="yes"/>
      <point x="983.76" y="1170.32"/>
      <point x="1026.816" y="1215.56"/>
      <point x="1026.816" y="1281.432" type="curve" smooth="yes"/>
      <point x="1026.816" y="1377.1840000000002"/>
      <point x="910.24" y="1454.24"/>
      <point x="645.096" y="1454.24" type="curve" smooth="yes"/>
      <point x="310.688" y="1454.24"/>
      <point x="102.848" y="1258.4640000000002"/>
      <point x="102.848" y="1015.6" type="curve" smooth="yes"/>
      <point x="102.848" y="808.12"/>
      <point x="208.304" y="681.52"/>
      <point x="511.272" y="603.792" type="curve" smooth="yes"/>
      <point x="810.424" y="526.9119999999999"/>
      <point x="879.576" y="450.32800000000003"/>
      <point x="879.576" y="311.624" type="curve" smooth="yes"/>
      <point x="879.576" y="132.8355170278638"/>
      <point x="741.8639999999999" y="34.448"/>
      <point x="548.976" y="34.448" type="curve" smooth="yes"/>
      <point x="348.608" y="34.448"/>
      <point x="245.08" y="270.616"/>
      <point x="198.744" y="270.616" type="curve" smooth="yes"/>
      <point x="127.568" y="270.616"/>
      <point x="83.66399999999999" y="220.28799999999998"/>
      <point x="83.66399999999999" y="153.992" type="curve" smooth="yes"/>
      <point x="83.66399999999999" y="39.78714110429448"/>
      <point x="235.10399999999998" y="-24.240000000000002"/>
    </contour>
  </outline>
</glyph>
<glyph name="dong.lf" format="2">
  <advance width="1377.512"/>
  <outline>
    <contour>
      <point x="1276.176" y="-275.488" type="line"/>
      <point x="104.568" y="-275.488" type="line"/>
      <point x="104.568" y="-338.66400000000004" type="line"/>
      <point x="1276.176" y="-338.66400000000004" type="line"/>
    </contour>
    <contour>
      <point x="821.504" y="799.408" type="curve" smooth="yes"/>
      <point x="821.504" y="129.688" type="line"/>
      <point x="833.8" y="-33.208" type="line"/>
      <point x="848.976" y="-33.208" type="line"/>
      <point x="1263.72" y="33.656" type="line"/>
      <point x="1263.72" y="59.472" type="line"/>
      <point x="1223.72" y="80.21531478213655"/>
      <point x="1136.2" y="124.26459400027147"/>
      <point x="1113.2" y="136.192" type="curve"/>
      <point x="1113.2" y="1306.528" type="line"/>
      <point x="1121.264" y="1488.24" type="line"/>
      <point x="1108.088" y="1488.24" type="line"/>
      <point x="658.928" y="1390.04" type="line"/>
      <point x="658.928" y="1365.68" type="line"/>
      <point x="713.928" y="1327.5458168598045"/>
      <point x="798.504" y="1269.0430220404453"/>
      <point x="821.504" y="1253.096" type="curve"/>
      <point x="821.504" y="952.384" type="line"/>
      <point x="1025.888" y="968.512" type="line"/>
      <point x="919.5600000000001" y="1024.088"/>
      <point x="792.832" y="1048.24"/>
      <point x="669.472" y="1048.24" type="curve" smooth="yes"/>
      <point x="334.904" y="1048.24"/>
      <point x="93.368" y="835.784"/>
      <point x="93.368" y="462.424" type="curve" smooth="yes"/>
      <point x="93.368" y="170.45600000000002"/>
      <point x="258.096" y="-24.240000000000002"/>
      <point x="518.4" y="-24.240000000000002" type="curve" smooth="yes"/>
      <point x="633.0640000000001" y="-24.240000000000002"/>
      <point x="726.2" y="20.736"/>
      <point x="883.872" y="211.584" type="curve"/>
      <point x="875.232" y="237.52" type="line"/>
      <point x="812.096" y="170.504"/>
      <point x="738.72" y="144.136"/>
      <point x="652.856" y="144.136" type="curve" smooth="yes"/>
      <point x="479.592" y="144.136"/>
      <point x="397.064" y="259.81600000000003"/>
      <point x="397.064" y="551.328" type="curve" smooth="yes"/>
      <point x="397.064" y="858.3199999999999"/>
      <point x="485.744" y="989.6400000000001"/>
      <point x="635.528" y="989.6400000000001" type="curve" smooth="yes"/>
      <point x="746.0" y="989.6400000000001"/>
      <point x="821.504" y="914.296"/>
    </contour>
    <contour>
      <point x="511.05600000000004" y="1130.496" type="line"/>
      <point x="1293.632" y="1130.496" type="line"/>
      <point x="1293.632" y="1202.128" type="line"/>
      <point x="511.05600000000004" y="1202.128" type="line"/>
    </contour>
  </outline>
</glyph>
<glyph name="florin.lf" format="2">
  <advance width="1605.52"/>
  <outline>
    <contour>
      <point x="367.104" y="691.7919999999999" type="line"/>
      <point x="1249.248" y="691.7919999999999" type="line"/>
      <point x="1252.7040000000002" y="755.968" type="line"/>
      <point x="370.56" y="755.968" type="line"/>
    </contour>
    <contour>
      <point x="268.048" y="-239.93599999999998" type="curve" smooth="yes"/>
      <point x="519.6479999999999" y="-239.93599999999998"/>
      <point x="798.16" y="-68.91199999999999"/>
      <point x="906.624" y="494.72" type="curve" smooth="yes"/>
      <point x="1020.5440000000001" y="1085.296" type="line" smooth="yes"/>
      <point x="1066.7920000000001" y="1323.0"/>
      <point x="1147.32" y="1400.9759999999999"/>
      <point x="1255.536" y="1400.9759999999999" type="curve" smooth="yes"/>
      <point x="1362.36" y="1400.9759999999999"/>
      <point x="1428.224" y="1226.352"/>
      <point x="1457.68" y="1226.352" type="curve" smooth="yes"/>
      <point x="1521.3120000000001" y="1226.352"/>
      <point x="1563.6399999999999" y="1264.288"/>
      <point x="1563.6399999999999" y="1318.8880000000001" type="curve" smooth="yes"/>
      <point x="1563.6399999999999" y="1395.544"/>
      <point x="1489.856" y="1454.24"/>
      <point x="1308.136" y="1454.24" type="curve" smooth="yes"/>
      <point x="1003.08" y="1454.24"/>
      <point x="772.5120000000001" y="1265.112"/>
      <point x="707.624" y="934.904" type="curve" smooth="yes"/>
      <point x="563.984" y="180.816" type="line" smooth="yes"/>
      <point x="503.368" y="-124.792"/>
      <point x="404.38399999999996" y="-181.248"/>
      <point x="332.136" y="-181.248" type="curve" smooth="yes"/>
      <point x="222.832" y="-181.248"/>
      <point x="176.928" y="-9.352"/>
      <point x="152.20000000000002" y="-9.352" type="curve" smooth="yes"/>
      <point x="103.872" y="-9.352"/>
      <point x="45.152" y="-40.592"/>
      <point x="45.152" y="-115.128" type="curve" smooth="yes"/>
      <point x="45.152" y="-195.03199999999998"/>
      <point x="124.152" y="-239.93599999999998"/>
    </contour>
  </outline>
</glyph>
<glyph name="franc.lf" format="2">
  <advance width="1359.7839999999999"/>
  <outline>
    <contour>
      <point x="1230.568" y="1501.144" type="line"/>
      <point x="1100.0720000000001" y="1430.0" type="line"/>
      <point x="486.912" y="1430.0" type="line"/>
      <point x="486.912" y="1363.616" type="line"/>
      <point x="1195.36" y="1363.616" type="line"/>
      <point x="1071.44" y="1397.9440000000002" type="line"/>
      <point x="1273.424" y="1002.7760000000001" type="line"/>
      <point x="1304.056" y="1011.0479999999999" type="line"/>
      <point x="1244.656" y="1501.144" type="line"/>
    </contour>
    <contour>
      <point x="1014.816" y="593.512" type="line"/>
      <point x="109.75999999999999" y="593.512" type="line"/>
      <point x="109.75999999999999" y="530.336" type="line"/>
      <point x="1014.816" y="530.336" type="line"/>
    </contour>
    <contour>
      <point x="1014.816" y="911.5120000000001" type="line"/>
      <point x="109.75999999999999" y="911.5120000000001" type="line"/>
      <point x="109.75999999999999" y="847.336" type="line"/>
      <point x="1014.816" y="847.336" type="line"/>
    </contour>
    <contour>
      <point x="130.49599999999998" y="1430.0" type="line"/>
      <point x="130.49599999999998" y="1398.184" type="line"/>
      <point x="344.56" y="1349.488" type="line"/>
      <point x="344.56" y="80.512" type="line"/>
      <point x="130.49599999999998" y="31.816" type="line"/>
      <point x="130.49599999999998" y="0.0" type="line"/>
      <point x="882.672" y="0.0" type="line"/>
      <point x="882.672" y="31.816" type="line"/>
      <point x="668.608" y="80.512" type="line"/>
      <point x="668.608" y="1430.0" type="line"/>
    </contour>
  </outline>
</glyph>
<glyph name="hookabovecomb.case" format="2">
  <anchor x="0.0" y="1430.0" name="_UCtop"/>
  <anchor x="0.0" y="1870.0" name="UCtop"/>
  <outline>
    <contour>
      <point x="-174.512" y="1757.952" type="line"/>
      <point x="36.128" y="1750.8"/>
      <point x="80.92" y="1729.736"/>
      <point x="80.92" y="1682.3999999999999" type="curve" smooth="yes"/>
      <point x="80.92" y="1632.456"/>
      <point x="27.432000000000002" y="1600.272"/>
      <point x="-90.328" y="1565.816" type="curve"/>
      <point x="-78.328" y="1528.0320000000002" type="line"/>
      <point x="142.36" y="1578.76"/>
      <point x="205.512" y="1641.8799999999999"/>
      <point x="205.512" y="1729.424" type="curve" smooth="yes"/>
      <point x="205.512" y="1824.1200000000001"/>
      <point x="145.36" y="1891.816"/>
      <point x="-152.544" y="1905.392" type="curve"/>
    </contour>
  </outline>
</glyph>
<glyph name="one.lf" format="2">
  <advance width="904.8"/>
  <outline>
    <contour>
      <point x="347.496" y="80.512" type="line"/>
      <point x="118.16" y="31.816" type="line"/>
      <point x="118.16" y="0.0" type="line"/>
      <point x="885.608" y="0.0" type="line"/>
      <point x="885.608" y="31.816" type="line"/>
      <point x="671.544" y="80.512" type="line"/>
      <point x="671.544" y="1441.52" type="line"/>
      <point x="628.2479999999999" y="1441.52" type="line"/>
      <point x="17.672" y="1130.6879999999999" type="line"/>
      <point x="30.64" y="1091.36" type="line"/>
      <point x="541.856" y="1207.632" type="line"/>
      <point x="347.496" y="1279.848" type="line"/>
    </contour>
  </outline>
</glyph>
<glyph name="three.lf" format="2">
  <advance width="1141.896"/>
  <outline>
    <contour>
      <point x="352.93600000000004" y="695.168" type="line"/>
      <point x="382.296" y="702.288" type="line" smooth="yes"/>
      <point x="615.3359999999999" y="761.712"/>
      <point x="748.2560000000001" y="676.52"/>
      <point x="748.2560000000001" y="453.79200000000003" type="curve" smooth="yes"/>
      <point x="748.2560000000001" y="192.16"/>
      <point x="626.0319999999999" y="43.087999999999994"/>
      <point x="477.296" y="43.087999999999994" type="curve" smooth="yes"/>
      <point x="340.68" y="43.087999999999994"/>
      <point x="211.21599999999998" y="244.51999999999998"/>
      <point x="157.45600000000002" y="244.51999999999998" type="curve" smooth="yes"/>
      <point x="95.672" y="244.51999999999998"/>
      <point x="52.464" y="196.008"/>
      <point x="52.464" y="133.408" type="curve" smooth="yes"/>
      <point x="52.464" y="39.056000000000004"/>
      <point x="136.664" y="-24.240000000000002"/>
      <point x="367.584" y="-24.240000000000002" type="curve" smooth="yes"/>
      <point x="777.232" y="-24.240000000000002"/>
      <point x="1066.344" y="190.06400000000002"/>
      <point x="1066.344" y="489.904" type="curve" smooth="yes"/>
      <point x="1066.344" y="716.4159999999999"/>
      <point x="895.344" y="854.688"/>
      <point x="587.968" y="822.6959999999999" type="curve"/>
      <point x="571.48" y="805.056" type="line"/>
      <point x="836.12" y="875.7040000000001"/>
      <point x="940.808" y="1007.7280000000001"/>
      <point x="940.808" y="1165.0" type="curve" smooth="yes"/>
      <point x="940.808" y="1333.968"/>
      <point x="817.232" y="1454.24"/>
      <point x="580.424" y="1454.24" type="curve" smooth="yes"/>
      <point x="323.44" y="1454.24"/>
      <point x="157.328" y="1297.672"/>
      <point x="96.816" y="1020.1680000000001" type="curve"/>
      <point x="137.48000000000002" y="1012.0479999999999" type="line"/>
      <point x="181.968" y="1175.096"/>
      <point x="287.76000000000005" y="1264.304"/>
      <point x="446.12" y="1264.304" type="curve" smooth="yes"/>
      <point x="589.736" y="1264.304"/>
      <point x="675.0079999999999" y="1187.0240000000001"/>
      <point x="675.0079999999999" y="1065.176" type="curve" smooth="yes"/>
      <point x="675.0079999999999" y="921.32"/>
      <point x="606.4217742507983" y="821.1344343940434"/>
      <point x="337.848" y="749.344" type="curve"/>
    </contour>
  </outline>
</glyph>
<glyph name="uni0306_hookabovecomb" format="2">
  <anchor x="0.0" y="1024.0" name="_top"/>
  <outline>
    <contour>
      <point x="-30.144" y="1313.0" type="line"/>
      <point x="161.24" y="1323.4"/>
      <point x="212.816" y="1391.488"/>
      <point x="212.816" y="1479.336" type="curve" smooth="yes"/>
      <point x="212.816" y="1560.064"/>
      <point x="158.968" y="1633.152"/>
      <point x="-93.6" y="1650.0" type="curve"/>
      <point x="-110.99199999999999" y="1510.768" type="line"/>
      <point x="57.976000000000006" y="1501.768"/>
      <point x="98.584" y="1483.432"/>
      <point x="98.584" y="1433.672" type="curve" smooth="yes"/>
      <point x="98.584" y="1391.184"/>
      <point x="69.55199999999999" y="1368.576"/>
      <point x="-33.599999999999994" y="1357.784" type="curve"/>
    </contour>
    <contour>
      <point x="0.0" y="1222.6879999999999" type="curve" smooth="yes"/>
      <point x="-133.512" y="1222.6879999999999"/>
      <point x="-204.27200000000002" y="1255.568"/>
      <point x="-240.576" y="1346.0" type="curve"/>
      <point x="-284.78400000000005" y="1346.0" type="line"/>
      <point x="-220.088" y="1142.576"/>
      <point x="-150.66400000000002" y="1097.0"/>
      <point x="0.0" y="1097.0" type="curve" smooth="yes"/>
      <point x="150.66400000000002" y="1097.0"/>
      <point x="220.088" y="1142.576"/>
      <point x="284.78400000000005" y="1346.0" type="curve"/>
      <point x="240.576" y="1346.0" type="line"/>
      <point x="204.27200000000002" y="1256.992"/>
      <point x="133.512" y="1222.6879999999999"/>
    </contour>
  </outline>
</glyph>
<glyph name="uni20A9.lf.1" format="2">
  <advance width="1531.5919999999999"/>
  <outline>
    <contour>
      <point x="753.72" y="1029.544" type="line"/>
      <point x="1034.576" y="-8.064" type="line"/>
      <point x="1185.696" y="-8.064" type="line"/>
      <point x="1339.8880000000001" y="1370.0320000000002" type="line"/>
      <point x="1456.8" y="1400.576" type="line"/>
      <point x="1456.8" y="1430.0" type="line"/>
      <point x="1154.104" y="1430.0" type="line"/>
      <point x="1154.104" y="1400.576" type="line"/>
      <point x="1278.2559999999999" y="1371.88" type="line"/>
      <point x="1176.488" y="421.976" type="line"/>
      <point x="1208.152" y="421.976" type="line"/>
      <point x="905.72" y="1438.064" type="line"/>
      <point x="831.3439999999999" y="1438.064" type="line"/>
      <point x="525.672" y="311.17600000000004" type="line"/>
      <point x="585.1759999999999" y="371.384" type="line"/>
      <point x="467.288" y="1367.184" type="line"/>
      <point x="588.624" y="1399.152" type="line"/>
      <point x="588.624" y="1430.0" type="line"/>
      <point x="75.944" y="1430.0" type="line"/>
      <point x="75.944" y="1399.152" type="line"/>
      <point x="190.28" y="1366.336" type="line"/>
      <point x="362.984" y="-8.064" type="line"/>
      <point x="497.71999999999997" y="-8.064" type="line"/>
      <point x="777.016" y="1029.544" type="line"/>
    </contour>
    <contour>
      <point x="411.224" y="911.512" type="line"/>
      <point x="90.06400000000001" y="911.512" type="line"/>
      <point x="90.06400000000001" y="847.3359999999999" type="line"/>
      <point x="411.224" y="847.3359999999999" type="line"/>
    </contour>
    <contour>
      <point x="411.224" y="593.512" type="line"/>
      <point x="90.06400000000001" y="593.512" type="line"/>
      <point x="90.06400000000001" y="530.336" type="line"/>
      <point x="411.224" y="530.336" type="line"/>
    </contour>
    <contour>
      <point x="1249.464" y="847.3359999999999" type="line"/>
      <point x="1441.256" y="847.3359999999999" type="line"/>
      <point x="1441.256" y="911.512" type="line"/>
      <point x="1249.464" y="911.512" type="line"/>
    </contour>
    <contour>
      <point x="1227.576" y="530.336" type="line"/>
      <point x="1441.256" y="530.336" type="line"/>
      <point x="1441.256" y="593.512" type="line"/>
      <point x="1227.576" y="593.512" type="line"/>
    </contour>
  </outline>
</glyph>
<glyph name="uni20AD.lf" format="2">
  <advance width="1580.432"/>
  <outline>
    <contour>
      <point x="599.456" y="753.568" type="line"/>
      <point x="1052.616" y="0.0" type="line"/>
      <point x="1533.552" y="0.0" type="line"/>
      <point x="1533.552" y="32.664" type="line"/>
      <point x="1365.088" y="85.36" type="line"/>
      <point x="891.872" y="860.7280000000001" type="line"/>
      <point x="874.8159999999999" y="773.384" type="line"/>
      <point x="1251.4" y="1353.552" type="line"/>
      <point x="1417.92" y="1395.184" type="line"/>
      <point x="1417.92" y="1430.0" type="line"/>
      <point x="998.832" y="1430.0" type="line"/>
      <point x="998.832" y="1395.184" type="line"/>
      <point x="1170.3200000000002" y="1353.976" type="line"/>
      <point x="837.6959999999999" y="832.432" type="line"/>
    </contour>
    <contour>
      <point x="1263.4959999999999" y="774.688" type="line"/>
      <point x="101.368" y="774.688" type="line"/>
      <point x="101.368" y="707.816" type="line"/>
      <point x="1263.4959999999999" y="707.816" type="line"/>
    </contour>
    <contour>
      <point x="612.1840000000001" y="1349.488" type="line"/>
      <point x="775.048" y="1398.184" type="line"/>
      <point x="775.048" y="1430.0" type="line"/>
      <point x="129.936" y="1430.0" type="line"/>
      <point x="129.936" y="1398.184" type="line"/>
      <point x="288.136" y="1349.488" type="line"/>
      <point x="288.136" y="80.512" type="line"/>
      <point x="129.936" y="31.816" type="line"/>
      <point x="129.936" y="0.0" type="line"/>
      <point x="764.024" y="0.0" type="line"/>
      <point x="764.024" y="31.816" type="line"/>
      <point x="612.1840000000001" y="80.512" type="line"/>
    </contour>
  </outline>
</glyph>
<glyph name="uni20B9.lf" format="2">
  <advance width="1317.016"/>
  <outline>
    <contour>
      <point x="1246.2240000000002" y="1090.12" type="line"/>
      <point x="94.368" y="1090.12" type="line"/>
      <point x="94.368" y="1026.944" type="line"/>
      <point x="1246.2240000000002" y="1026.944" type="line"/>
    </contour>
    <contour>
      <point x="368.808" y="685.52" type="line" smooth="yes"/>
      <point x="465.848" y="685.52"/>
      <point x="513.544" y="663.272"/>
      <point x="555.3040000000001" y="524.84" type="curve" smooth="yes"/>
      <point x="654.392" y="195.18400000000003" type="line" smooth="yes"/>
      <point x="713.424" y="0.6639999999999997"/>
      <point x="767.784" y="-31.48"/>
      <point x="1195.1119999999999" y="0.0" type="curve"/>
      <point x="1195.1119999999999" y="49.416" type="line"/>
      <point x="1079.2640000000001" y="48.416"/>
      <point x="1044.384" y="70.808"/>
      <point x="1001.776" y="202.36" type="curve" smooth="yes"/>
      <point x="918.1360000000001" y="460.432" type="line" smooth="yes"/>
      <point x="860.832" y="636.9200000000001"/>
      <point x="764.6560000000001" y="727.4240000000001"/>
      <point x="555.152" y="735.24" type="curve"/>
      <point x="559.76" y="728.936" type="line"/>
      <point x="840.896" y="744.0"/>
      <point x="991.9200000000001" y="892.3919999999999"/>
      <point x="991.9200000000001" y="1070.24" type="curve" smooth="yes"/>
      <point x="991.9200000000001" y="1228.1280000000002"/>
      <point x="889.64" y="1376.128"/>
      <point x="518.888" y="1376.128" type="curve" smooth="yes"/>
      <point x="423.872" y="1376.128" type="line"/>
      <point x="423.872" y="1430.0" type="line"/>
      <point x="94.368" y="1430.0" type="line"/>
      <point x="94.368" y="1358.432" type="line"/>
      <point x="339.184" y="1358.432" type="line" smooth="yes"/>
      <point x="568.5840000000001" y="1358.432"/>
      <point x="662.1679999999999" y="1259.608"/>
      <point x="662.1679999999999" y="1059.1840000000002" type="curve" smooth="yes"/>
      <point x="662.1679999999999" y="857.088"/>
      <point x="556.824" y="752.48"/>
      <point x="374.0" y="752.48" type="curve" smooth="yes"/>
      <point x="86.88" y="752.48" type="line"/>
      <point x="86.88" y="685.52" type="line"/>
    </contour>
    <contour>
      <point x="1246.2240000000002" y="1430.0" type="line"/>
      <point x="94.368" y="1430.0" type="line"/>
      <point x="94.368" y="1365.824" type="line"/>
      <point x="1246.2240000000002" y="1365.824" type="line"/>
    </contour>
  </outline>
</glyph>
<glyph name="uni20BD.lf" format="2">
  <advance width="1392.2"/>
  <outline>
    <contour>
      <point x="1254.6799999999998" y="564.664" type="line"/>
      <point x="103.064" y="564.664" type="line"/>
      <point x="103.064" y="501.488" type="line"/>
      <point x="1254.6799999999998" y="501.488" type="line"/>
    </contour>
    <contour>
      <point x="915.192" y="776.4879999999999" type="line" smooth="yes"/>
      <point x="1214.016" y="776.4879999999999"/>
      <point x="1328.744" y="922.032"/>
      <point x="1328.744" y="1103.4560000000001" type="curve" smooth="yes"/>
      <point x="1328.744" y="1283.8799999999999"/>
      <point x="1218.136" y="1430.0"/>
      <point x="915.192" y="1430.0" type="curve" smooth="yes"/>
      <point x="514.816" y="1430.0" type="line"/>
      <point x="502.78400000000005" y="1363.616" type="line"/>
      <point x="763.064" y="1363.616" type="line" smooth="yes"/>
      <point x="955.912" y="1363.616"/>
      <point x="1028.0720000000001" y="1266.128"/>
      <point x="1028.0720000000001" y="1102.064" type="curve" smooth="yes"/>
      <point x="1028.0720000000001" y="932.696"/>
      <point x="955.008" y="840.664"/>
      <point x="798.408" y="840.664" type="curve" smooth="yes"/>
      <point x="103.064" y="840.664" type="line"/>
      <point x="103.064" y="776.4879999999999" type="line"/>
    </contour>
    <contour>
      <point x="107.096" y="1430.0" type="line"/>
      <point x="107.096" y="1398.184" type="line"/>
      <point x="321.16" y="1349.488" type="line"/>
      <point x="321.16" y="80.512" type="line"/>
      <point x="107.096" y="31.816" type="line"/>
      <point x="107.096" y="0.0" type="line"/>
      <point x="859.272" y="0.0" type="line"/>
      <point x="859.272" y="31.816" type="line"/>
      <point x="645.2080000000001" y="80.512" type="line"/>
      <point x="645.2080000000001" y="1430.0" type="line"/>
    </contour>
  </outline>
</glyph>
